<?xml version="1.0" encoding="UTF-8"?>
<svg width="623px" height="155px" viewBox="0 0 623 155" version="1.1" xmlns="http://www.w3.org/2000/svg" xmlns:xlink="http://www.w3.org/1999/xlink">
    <title>Group 2</title>
    <defs>
        <polygon id="path-1" points="0 0 282.666667 0 282.666667 94 0 94"></polygon>
    </defs>
    <g id="Page-1" stroke="none" stroke-width="1" fill="none" fill-rule="evenodd">
        <g id="Group-2" transform="translate(2.432293, 0.630208)">
            <g id="Clipped" transform="translate(168.567707, 0.000000)">
                <mask id="mask-2" fill="white">
                    <use xlink:href="#path-1"></use>
                </mask>
                <g id="Path"></g>
                <path d="M129.557292,53.3489587 C130.020833,52.6927093 130.416667,51.9739587 130.713541,51.1927093 C132.317708,47.0156253 130.317708,42.3177093 126.265625,40.7187507 C124.614584,40.0729173 122.807292,40.109376 121.166667,40.8333333 C119.468749,41.5781253 118.161459,42.9583333 117.484375,44.7187507 C116.317708,47.7656253 117.776041,51.1927093 120.744792,52.359376 C121.781251,52.7656253 122.953125,52.255208 123.364584,51.2239587 C123.770833,50.1875 123.265625,49.0156253 122.223959,48.609376 C121.3125,48.25 120.875,47.1510427 121.255208,46.1562507 C121.541667,45.4114587 122.088541,44.8281253 122.796875,44.5208333 C123.4375,44.234376 124.140625,44.2187507 124.781251,44.4687507 C126.786459,45.2604173 127.755208,47.630208 126.942708,49.755208 C126.385416,51.2083333 125.3125,52.3437507 123.932292,52.9531253 C122.645833,53.5156253 121.234375,53.5468747 119.958333,53.0416667 C116.244792,51.5833333 114.442708,47.2239587 115.9375,43.3229173 C116.911459,40.7864587 118.682292,38.7968747 120.927083,37.7239587 C123.229167,36.630208 125.791667,36.5677093 128.348959,37.5468747 C131.296875,38.6718747 133.880208,41.880208 137.791667,46.7291667 C138.317708,47.380208 138.864584,48.0625 139.442708,48.7708333 L141.010416,50.6979173 L142.583333,48.7708333 C143.161459,48.0625 143.708333,47.380208 144.234375,46.7291667 C148.145833,41.880208 150.729167,38.6718747 153.677083,37.5468747 C156.234375,36.5729173 158.796875,36.630208 161.098959,37.7239587 C163.343749,38.7968747 165.114584,40.7864587 166.088541,43.3229173 C167.583333,47.2239587 165.781251,51.5833333 162.067708,53.0416667 C160.791667,53.5468747 159.375,53.5156253 158.093749,52.9531253 C156.708333,52.3437507 155.645833,51.2083333 155.083333,49.755208 C154.270833,47.630208 155.239584,45.2604173 157.244792,44.4687507 C157.885416,44.2187507 158.588541,44.234376 159.229167,44.5208333 C159.932292,44.8281253 160.484375,45.4114587 160.770833,46.1562507 C161.151041,47.1510427 160.713541,48.25 159.796875,48.609376 C158.760416,49.0156253 158.255208,50.1875 158.661459,51.2239587 C159.072917,52.2604173 160.244792,52.7656253 161.281251,52.359376 C164.25,51.1927093 165.708333,47.7656253 164.541667,44.7187507 C163.864584,42.9583333 162.557292,41.5781253 160.859375,40.8333333 C159.223959,40.109376 157.411459,40.0729173 155.760416,40.7187507 C151.708333,42.3177093 149.708333,47.0156253 151.3125,51.1927093 C151.609375,51.9739587 152.005208,52.6927093 152.468749,53.3541667 C149.875,58.4687507 145.947917,63.177084 141.010416,67.2135413 C136.078125,63.177084 132.151041,58.4687507 129.557292,53.3489587 Z M275.890625,56.25 C266.088541,44.8333333 250.156251,43.7187507 236.25,53.4635413 C232.916667,55.802084 229.713541,58.3125 226.619792,60.744792 C217,68.2968747 207.859375,75.4687507 193.781251,79.0208333 L193.697917,78.7864587 C183.546875,82.2135413 170.010416,81.4062507 157.5,76.6354173 C152.6875,74.807292 148.265625,72.4635413 144.338541,69.7239587 C148.895833,65.8854173 152.755208,61.3541667 155.557292,56.177084 C155.848959,56.3489587 156.151041,56.5 156.463541,56.6406253 C157.666667,57.1666667 158.932292,57.432292 160.203125,57.432292 C161.338541,57.432292 162.468749,57.2187507 163.552083,56.7916667 C169.317708,54.5260427 172.145833,47.8385413 169.859375,41.8854173 C168.515625,38.375 166.020833,35.609376 162.838541,34.0885413 C159.5625,32.5312507 155.796875,32.4218747 152.229167,33.7864587 C148.265625,35.302084 145.411459,38.8437507 141.083333,44.2031253 C141.0625,44.234376 141.036459,44.2604173 141.010416,44.2916667 C140.989584,44.2604173 140.963541,44.2291667 140.942708,44.2031253 C136.614584,38.8437507 133.760416,35.302084 129.796875,33.7864587 C126.229167,32.4218747 122.463541,32.5312507 119.1875,34.0885413 C116.005208,35.609376 113.510416,38.375 112.166667,41.8854173 C109.880208,47.8385413 112.708333,54.5260427 118.473959,56.7916667 C120.765625,57.6927093 123.281251,57.6406253 125.5625,56.6406253 C125.875,56.5 126.177083,56.3489587 126.468749,56.177084 C129.270833,61.3541667 133.130208,65.8854173 137.6875,69.7291667 C133.760416,72.4635413 129.338541,74.807292 124.526041,76.6354173 C112.015625,81.4062507 98.4843747,82.2135413 88.3281253,78.7864587 L88.244792,79.0208333 C74.1614587,75.4687507 65.0260413,68.2968747 55.4062507,60.744792 C52.3125,58.3125 49.1093747,55.802084 45.7760413,53.4635413 C31.869792,43.7187507 15.9375,44.8333333 6.135416,56.25 C-2.17187467,65.9166667 -1.192708,80.6979173 8.317708,89.1927093 C11.7812507,92.2864587 16.1406253,93.9531253 20.7031253,93.9531253 C21.119792,93.9531253 21.5312507,93.9375 21.9479173,93.9114587 C26.9635413,93.5833333 31.5416667,91.2812507 34.8437493,87.4375 C40.4166667,80.9479173 39.760416,71.0364587 33.380208,65.3385413 C30.817708,63.0468747 27.5260413,61.9114587 24.125,62.1354173 C20.7187493,62.359376 17.6093747,63.9218747 15.364584,66.5312507 L15.7031253,66.8177093 C14.994792,67.6406253 14.557292,68.7031253 14.557292,69.875 C14.557292,72.4427093 16.6406253,74.5260427 19.2083333,74.5260427 C21.7760413,74.5260427 23.8593747,72.4427093 23.8593747,69.875 C23.8593747,68.557292 23.307292,67.375 22.432292,66.5260427 C23.0625,66.3333333 23.7187493,66.2031253 24.3906253,66.1562507 C26.6979173,66 28.9375,66.7812507 30.6875,68.3437507 C35.442708,72.5885413 35.932292,79.9791667 31.7760413,84.8177093 C29.182292,87.8281253 25.5989587,89.6354173 21.6770827,89.8906253 C17.7656253,90.1510427 13.9739587,88.8333333 11.010416,86.1927093 C3.125,79.1458333 2.3125,66.8906253 9.20312533,58.864584 C17.7083333,48.9687507 31.1510413,48.1406253 43.4531253,56.7604173 C46.6979173,59.0364587 49.8541667,61.5156253 52.9062507,63.9114587 C63.5625,72.2812507 74.5833333,80.932292 92.682292,84.0833333 L92.6875,84.052084 C95.682292,84.6041667 98.8385413,84.880208 102.093749,84.880208 C115.151041,84.880208 129.708333,80.5 141.010416,72.3229173 C152.317708,80.5 166.869792,84.880208 179.927083,84.880208 C183.182292,84.880208 186.343749,84.6041667 189.338541,84.052084 L189.343749,84.0833333 C207.442708,80.932292 218.458333,72.2812507 229.114584,63.9114587 C232.171875,61.5156253 235.328125,59.0364587 238.572917,56.7604173 C250.869792,48.1406253 264.317708,48.9687507 272.822917,58.864584 C279.708333,66.8906253 278.901041,79.1458333 271.015625,86.1927093 C268.052083,88.8333333 264.265625,90.1510427 260.348959,89.8906253 C256.427083,89.6354173 252.843749,87.8281253 250.25,84.8177093 C246.093749,79.9791667 246.583333,72.5885413 251.338541,68.3437507 C253.088541,66.7812507 255.328125,66.005208 257.635416,66.1562507 C258.307292,66.2031253 258.963541,66.3333333 259.593749,66.5260427 C258.718749,67.375 258.166667,68.557292 258.166667,69.875 C258.166667,72.4427093 260.25,74.5260427 262.817708,74.5260427 C265.385416,74.5260427 267.468749,72.4427093 267.468749,69.875 C267.468749,68.7031253 267.031251,67.6406253 266.322917,66.8177093 L266.661459,66.5312507 C264.416667,63.9218747 261.307292,62.359376 257.901041,62.1354173 C254.489584,61.9114587 251.208333,63.0468747 248.645833,65.3385413 C242.265625,71.0364587 241.609375,80.9479173 247.182292,87.4375 C250.484375,91.2812507 255.0625,93.5833333 260.078125,93.9114587 C260.494792,93.9375 260.906251,93.9531253 261.322917,93.9531253 C265.885416,93.9531253 270.244792,92.2864587 273.713541,89.1927093 C283.218749,80.6979173 284.197917,65.9166667 275.890625,56.25 Z M141.010416,5.119792 C144.338541,8.994792 146.145833,13.9166667 146.145833,19.177084 C146.145833,24.4375 144.338541,29.359376 141.010416,33.239584 C137.6875,29.359376 135.880208,24.4375 135.880208,19.177084 C135.880208,13.9166667 137.6875,8.994792 141.010416,5.119792 Z M141.010416,38.1927093 C141.520833,38.1927093 142.026041,38.005208 142.416667,37.625 C147.354167,32.859376 150.1875,26.1354173 150.1875,19.177084 C150.1875,12.2187507 147.354167,5.494792 142.416667,0.729166667 C141.635416,-0.0260413333 140.390625,-0.0260413333 139.609375,0.729166667 C134.671875,5.494792 131.838541,12.2187507 131.838541,19.177084 C131.838541,26.1354173 134.671875,32.859376 139.609375,37.625 C140,38.005208 140.505208,38.1927093 141.010416,38.1927093" id="Shape" fill="#7F9593" fill-rule="nonzero" mask="url(#mask-2)"></path>
            </g>
            <line x1="0" y1="107.635417" x2="619.015524" y2="107.635417" id="Path" stroke="#D5B19B" stroke-width="3.00052738" stroke-linecap="round"></line>
            <g id="Group" transform="translate(0.742351, 117.930720)" fill="#7F9593" fill-rule="nonzero">
                <g transform="translate(0.000000, -0.000000)" id="Shape">
                    <path d="M12.6562507,35.6406253 L12.6562507,35.25 L11.6562507,35.25 C8.66145867,35.25 7.66666667,32.682292 7.66666667,29.296876 L7.66666667,22.9531253 L19.744792,22.9531253 C27.3385427,22.9531253 31.2552093,17.0364587 31.2552093,11.046876 C31.2552093,5.91666667 27.442708,0 19.744792,0 L-8.8817842e-16,0 L-8.8817842e-16,0.390625333 L1,0.390625333 C3.994792,0.390625333 4.989584,2.95833333 4.989584,6.34375067 L4.989584,29.296876 C4.989584,32.682292 3.994792,35.25 1,35.25 L-8.8817842e-16,35.25 L-8.8817842e-16,35.6406253 L12.6562507,35.6406253 Z M17.3229173,0.536458667 C24.9479173,0.536458667 28.4791667,4.95312533 28.4791667,11.046876 C28.4791667,16.5729173 24.9843747,22.4166667 17.3229173,22.4166667 L7.66666667,22.4166667 L7.66666667,0.536458667 L17.3229173,0.536458667 Z"></path>
                </g>
            </g>
            <g id="Group" transform="translate(34.585763, 117.930720)" fill="#7F9593" fill-rule="nonzero">
                <g transform="translate(0.000000, -0.000000)" id="Shape">
                    <path d="M-8.8817842e-16,35.6406253 L12.6562507,35.6406253 L12.6562507,35.25 L11.6562507,35.25 C8.66145867,35.25 7.66666667,32.682292 7.66666667,29.296876 L7.66666667,17.8229173 L12.369792,17.8229173 L27.5156253,35.6406253 L31.0104173,35.6406253 L15.8593747,17.8229173 L20.1041667,17.8229173 C24.5937507,17.8229173 31.7916667,16.3229173 31.7916667,8.69791733 C31.7916667,2.53125067 26.1979173,0 20.2812507,0 L-8.8817842e-16,0 L-8.8817842e-16,0.390625333 L1,0.390625333 C3.994792,0.390625333 4.989584,2.95833333 4.989584,6.34375067 L4.989584,29.296876 C4.989584,32.682292 3.994792,35.25 1,35.25 L-8.8817842e-16,35.25 L-8.8817842e-16,35.6406253 Z M7.66666667,17.2864587 L7.66666667,0.536458667 L19.067708,0.536458667 C24.6979173,0.536458667 29.119792,2.921876 29.119792,8.69791733 C29.119792,14.6510413 24.6979173,17.2864587 19.067708,17.2864587 L7.66666667,17.2864587 Z"></path>
                </g>
            </g>
            <g id="Group" transform="translate(73.952088, 117.930720)" fill="#7F9593" fill-rule="nonzero">
                <g id="Path">
                    <polygon points="0 35.6406253 2.677084 35.6406253 2.677084 0 0 0"></polygon>
                </g>
            </g>
            <g id="Group" transform="translate(84.210729, 117.394263)" fill="#7F9593" fill-rule="nonzero">
                <g transform="translate(-0.000000, 0.000000)" id="Path">
                    <path d="M5.92118946e-16,29.9739573 C3.45833333,35.2135413 10.3020827,36.7135413 17.2864573,36.7135413 C25.380208,36.7135413 30.6510413,32.4687493 30.6510413,27.515624 C30.6510413,13.4010413 3.567708,20.817708 3.567708,7.947916 C3.567708,4.17187467 7.59374933,0.822916 14.328124,0.822916 C21.135416,0.822916 25.4843747,3.99479067 27.7291667,6.09895733 L29.2968747,3.42187467 C26.4843747,1.42708267 20.8541667,0 15.8958333,0 C6.807292,0 1.71354133,4.67187467 1.71354133,9.58854133 C1.71354133,23.380208 28.9791667,16.005208 28.9791667,28.765624 C28.9791667,32.7916667 24.0937493,36.1406243 17.322916,36.1770827 C10.7291667,36.2135411 5.703124,33.755208 2.067708,27.8385413 L5.92118946e-16,29.9739573 Z"></path>
                </g>
            </g>
            <g id="Group" transform="translate(119.942265, 117.394263)" fill="#7F9593" fill-rule="nonzero">
                <g id="Path">
                    <path d="M20.4947907,36.7135413 C24.6666667,36.7135413 28.9791667,36 31.6510413,33.572916 L29.9739587,31.6145827 C28.0156253,34.2864573 24.6666667,36.1770827 20.5312493,36.1770827 C12.2291667,36.1770827 2.28124933,27.6614573 2.28124933,17.322916 C2.28124933,5.91666667 8.875,1.42708267 16.4687493,1.42708267 C20.817708,1.42708267 25.625,2.74479067 30.010416,4.95833333 L31.078124,2.21354133 C27.1614573,0.536457333 24.2395827,0 19.7135413,0 C6.703124,0 5.92118946e-16,9.16145733 5.92118946e-16,18.3593747 C5.92118946e-16,27.4114573 6.703124,36.7135413 20.4947907,36.7135413 Z"></path>
                </g>
            </g>
            <g id="Group" transform="translate(159.878597, 117.930720)" fill="#7F9593" fill-rule="nonzero">
                <g id="Path">
                    <polygon points="0 35.6406253 2.677084 35.6406253 2.677084 0 0 0"></polygon>
                </g>
            </g>
            <g id="Group" transform="translate(168.355989, 117.930720)" fill="#7F9593" fill-rule="nonzero">
                <g transform="translate(-0.000000, -0.000000)" id="Path">
                    <path d="M30.546876,35.6406253 L30.546876,32.114584 C24.2708333,34.8541667 17.1093747,35.1041667 11.6562507,35.1041667 C8.66145867,35.1041667 7.66666667,32.682292 7.66666667,29.296876 L7.66666667,6.34375067 C7.66666667,2.95833333 8.66145867,0.359374667 11.6562507,0.359374667 L12.6562507,0.359374667 L12.6562507,0 L-8.8817842e-16,0 L-8.8817842e-16,0.359374667 L1,0.359374667 C3.994792,0.359374667 4.989584,2.95833333 4.989584,6.34375067 L4.989584,29.296876 C4.989584,32.682292 3.994792,35.2864587 1,35.2864587 L-8.8817842e-16,35.2864587 L-8.8817842e-16,35.6406253 L30.546876,35.6406253 Z"></path>
                </g>
            </g>
            <g id="Group" transform="translate(201.130645, 117.930720)" fill="#7F9593" fill-rule="nonzero">
                <g id="Path">
                    <path d="M30.546876,35.6406253 L30.546876,32.114584 C24.2708333,34.8541667 17.1093747,35.1041667 11.6562507,35.1041667 C8.66145867,35.1041667 7.66666667,32.682292 7.66666667,29.296876 L7.66666667,6.34375067 C7.66666667,2.95833333 8.66145867,0.359374667 11.6562507,0.359374667 L12.6562507,0.359374667 L12.6562507,0 L0,0 L0,0.359374667 L1,0.359374667 C3.994792,0.359374667 4.989584,2.95833333 4.989584,6.34375067 L4.989584,29.296876 C4.989584,32.682292 3.994792,35.2864587 1,35.2864587 L0,35.2864587 L0,35.6406253 L30.546876,35.6406253 Z"></path>
                </g>
            </g>
            <g id="Group" transform="translate(233.905301, 117.930720)" fill="#7F9593" fill-rule="nonzero">
                <g transform="translate(0.000000, -0.000000)" id="Shape">
                    <path d="M15.932292,35.6406253 L15.932292,35.25 C11.7604173,35.25 9.44791733,34.427084 9.44791733,31.0052093 C9.44791733,29.864584 9.875,28.046876 10.5156253,25.8385427 L29.2239587,25.8385427 C30.046876,27.802084 30.7604173,29.6875 31.364584,31.2916667 C32.432292,34.1093747 31.9010413,35.2864587 27.1614587,35.2864587 L27.1614587,35.6406253 L40.8437507,35.6406253 L40.8437507,35.2864587 C36.4635427,35.2864587 35.3541667,33.5 33.3593747,28.942708 L20.744792,0 L17.7135427,0 C17.7135427,0 18.2135427,1.10416667 18.927084,2.70833333 L7.48437467,28.942708 C5.489584,33.5 3.744792,35.2864587 -8.8817842e-16,35.2864587 L-8.8817842e-16,35.6406253 L15.932292,35.6406253 Z M10.692708,25.307292 C12.9375,18.1041667 17.5729173,7.34375067 19.244792,3.421876 C20.0312507,5.239584 25.2708333,16.3593747 29.0104173,25.307292 L10.692708,25.307292 Z"></path>
                </g>
            </g>
            <g id="Group" transform="translate(299.526921, 117.394263)" fill="#7F9593" fill-rule="nonzero">
                <g id="Shape">
                    <path d="M13.1145827,36.7135413 C19.5312493,36.7135413 25.7708333,33.8593747 29.0468747,29.0833333 C29.9375,30.1197907 30.4739587,31.260416 30.4739587,32.5416667 C30.4739587,33.822916 30.0468747,35.7135413 27.552084,36.390624 C28.052084,36.7135413 28.1562493,36.7135413 28.7291667,36.7135413 C31.1145827,36.7135413 32.7916667,34.005208 32.7916667,31.7916667 C32.7916667,29.8697907 31.8645827,28.1562493 30.3645827,26.6614573 C31.0416667,25.0572907 31.4375,23.3124987 31.4375,21.385416 C31.4375,18.4635413 30.0468747,16.0416667 27.375,15.1145827 L26.0885413,17.322916 C28.5156253,17.75 30.3645827,19.9947907 30.3645827,23.1666667 C30.3645827,24.203124 30.1875,25.197916 29.8333333,26.197916 C25.625,22.4218747 17.7135413,19.7812493 11.7291667,16.822916 C19.5312493,15.078124 29.2239587,14.6145827 29.2239587,7.520832 C29.2239587,1.640624 21.7395827,0 15.6093747,0 C8.34375067,0 1.35416667,2.890624 1.35416667,9.197916 C1.35416667,12.692708 3.88541733,15.328124 7.447916,17.572916 C3.244792,19.0364573 0,21.4583333 0,26.6614573 C0,32.828124 6.02604133,36.7135413 13.1145827,36.7135413 Z M28.619792,28.6197907 C26.125,32.2916667 21.3125,34.895832 15.682292,34.895832 C8.697916,34.895832 2.03124933,31.6145827 2.03124933,24.5572907 C2.03124933,20.9947907 4.48958267,19.1041653 7.947916,17.895832 C14.6510413,21.885416 24.5208333,24.5572907 28.619792,28.6197907 Z M11.0833333,16.505208 C7.02083333,14.4374987 4.03124933,12.1562493 4.03124933,9.125 C4.03124933,3.317708 8.09375067,0.536457333 15.682292,0.536457333 C20.7812493,0.536457333 26.552084,2.390624 26.552084,7.453124 C26.552084,14.2239573 18.3906253,14.7916667 11.0833333,16.505208 Z"></path>
                </g>
            </g>
            <g id="Group" transform="translate(357.095207, 117.930720)" fill="#7F9593" fill-rule="nonzero">
                <g id="Path">
                    <path d="M30.546876,35.6406253 L30.546876,32.114584 C24.2708333,34.8541667 17.1093747,35.1041667 11.6562507,35.1041667 C8.66145867,35.1041667 7.66666667,32.682292 7.66666667,29.296876 L7.66666667,6.34375067 C7.66666667,2.95833333 8.66145867,0.359374667 11.6562507,0.359374667 L12.6562507,0.359374667 L12.6562507,0 L0,0 L0,0.359374667 L1,0.359374667 C3.994792,0.359374667 4.989584,2.95833333 4.989584,6.34375067 L4.989584,29.296876 C4.989584,32.682292 3.994792,35.2864587 1,35.2864587 L0,35.2864587 L0,35.6406253 L30.546876,35.6406253 Z"></path>
                </g>
            </g>
            <g id="Group" transform="translate(391.651113, 117.394263)" fill="#7F9593" fill-rule="nonzero">
                <g id="Shape">
                    <path d="M2.39062533,20.140624 C2.39062533,8.130208 11.8697907,1.46354133 20.635416,1.46354133 C28.1562493,1.46354133 35.1458333,6.380208 35.1458333,17.0364573 C35.1458333,28.515624 25.4114573,35.2135413 16.572916,35.2135413 C9.16145733,35.2135413 2.39062533,30.5468747 2.39062533,20.140624 Z M5.92118946e-16,18.390624 C5.92118946e-16,28.515624 8.380208,36.7135413 18.7135413,36.7135413 C29.0468747,36.7135413 37.4218747,28.515624 37.4218747,18.390624 C37.4218747,8.270832 29.0468747,0 18.7135413,0 C8.380208,0 5.92118946e-16,8.270832 5.92118946e-16,18.390624 Z"></path>
                </g>
            </g>
            <g id="Group" transform="translate(432.370136, 117.930720)" fill="#7F9593" fill-rule="nonzero">
                <g transform="translate(0.000000, -0.000000)" id="Shape">
                    <path d="M-8.8817842e-16,35.6406253 L12.6562507,35.6406253 L12.6562507,35.25 L11.6562507,35.25 C8.66145867,35.25 7.66666667,32.682292 7.66666667,29.296876 L7.66666667,17.8229173 L12.369792,17.8229173 L27.5156253,35.6406253 L31.0104173,35.6406253 L15.8593747,17.8229173 L20.1041667,17.8229173 C24.5937507,17.8229173 31.7916667,16.3229173 31.7916667,8.69791733 C31.7916667,2.53125067 26.1979173,0 20.2812507,0 L-8.8817842e-16,0 L-8.8817842e-16,0.390625333 L1,0.390625333 C3.994792,0.390625333 4.989584,2.95833333 4.989584,6.34375067 L4.989584,29.296876 C4.989584,32.682292 3.994792,35.25 1,35.25 L-8.8817842e-16,35.25 L-8.8817842e-16,35.6406253 Z M7.66666667,17.2864587 L7.66666667,0.536458667 L19.067708,0.536458667 C24.6979173,0.536458667 29.119792,2.921876 29.119792,8.69791733 C29.119792,14.6510413 24.6979173,17.2864587 19.067708,17.2864587 L7.66666667,17.2864587 Z"></path>
                </g>
            </g>
            <g id="Group" transform="translate(467.460405, 117.930720)" fill="#7F9593" fill-rule="nonzero">
                <g transform="translate(0.000000, -0.000000)" id="Path">
                    <path d="M-8.8817842e-16,0 L-8.8817842e-16,0.359374667 L1,0.390625333 C3.994792,0.5 4.989584,2.95833333 4.989584,6.34375067 L4.989584,29.296876 C4.989584,32.682292 3.994792,35.2864587 1,35.2864587 L-8.8817842e-16,35.2864587 L-8.8817842e-16,35.6406253 L30.546876,35.6406253 L30.546876,32.114584 C24.2708333,34.8541667 17.1093747,35.1041667 11.6562507,35.1041667 C8.66145867,35.1041667 7.66666667,32.682292 7.66666667,29.296876 L7.66666667,17.8229173 L29.4739587,17.8229173 L29.4739587,15.3281253 L7.66666667,15.3281253 L7.66666667,6.34375067 C7.66666667,2.95833333 8.66145867,0.536458667 11.6562507,0.536458667 C17.1093747,0.536458667 24.2708333,0.786458667 30.546876,3.53125067 L30.546876,0 L-8.8817842e-16,0 Z"></path>
                </g>
            </g>
            <g id="Group" transform="translate(501.303817, 117.930720)" fill="#7F9593" fill-rule="nonzero">
                <g transform="translate(0.000000, -0.000000)" id="Path">
                    <path d="M-8.8817842e-16,35.6406253 L13.2239587,35.6406253 L13.2239587,35.2864587 C7.77083333,35.2864587 5.45312533,30.296876 5.45312533,12.4010413 L5.45312533,3.5625 L32.614584,35.6406253 L36.1041667,35.6406253 L33.3229173,32.3593747 L33.3229173,7.52083333 C33.3229173,2.671876 34.927084,0.359374667 38.244792,0.359374667 L38.244792,0 L25.0208333,0 L25.0208333,0.359374667 C30.4739587,0.359374667 32.7916667,5.34895867 32.7916667,23.239584 L32.7916667,31.8281253 L5.84895867,0 L2.35416667,0 L4.921876,3.03125067 L4.921876,28.119792 C4.921876,32.9687507 3.317708,35.2864587 -8.8817842e-16,35.2864587 L-8.8817842e-16,35.6406253 Z"></path>
                </g>
            </g>
            <g id="Group" transform="translate(542.842239, 117.930720)" fill="#7F9593" fill-rule="nonzero">
                <g transform="translate(0.000000, -0.000000)" id="Path">
                    <path d="M29.5833333,35.6406253 L29.5833333,32.114584 C23.953124,34.5364587 19.7135413,35.1041667 12.260416,35.1041667 L3.567708,35.1041667 L17.0364573,17.8229173 L28.9062493,17.8229173 L28.9062493,17.2864587 L17.4635413,17.2864587 L30.9375,0 L1.35416667,0 L1.35416667,3.53125067 C6.98958267,1.10416667 11.2291667,0.536458667 18.6770827,0.536458667 L27.375,0.536458667 L14.328124,17.2864587 L3.28124933,17.2864587 L3.28124933,17.8229173 L13.9010413,17.8229173 L5.92118946e-16,35.6406253 L29.5833333,35.6406253 Z"></path>
                </g>
            </g>
            <g id="Group" transform="translate(578.858777, 117.394263)" fill="#7F9593" fill-rule="nonzero">
                <g transform="translate(0.000000, 0.000000)" id="Shape">
                    <path d="M2.39062533,20.140624 C2.39062533,8.130208 11.8697907,1.46354133 20.635416,1.46354133 C28.1562493,1.46354133 35.1458333,6.380208 35.1458333,17.0364573 C35.1458333,28.515624 25.4114573,35.2135413 16.572916,35.2135413 C9.16145733,35.2135413 2.39062533,30.5468747 2.39062533,20.140624 Z M5.92118946e-16,18.390624 C5.92118946e-16,28.515624 8.380208,36.7135413 18.7135413,36.7135413 C29.0468747,36.7135413 37.4218747,28.515624 37.4218747,18.390624 C37.4218747,8.270832 29.0468747,0 18.7135413,0 C8.380208,0 5.92118946e-16,8.270832 5.92118946e-16,18.390624 Z"></path>
                </g>
            </g>
        </g>
    </g>
</svg>