<?xml version="1.0" encoding="UTF-8"?>
<svg width="226px" height="164px" viewBox="0 0 226 164" version="1.1" xmlns="http://www.w3.org/2000/svg" xmlns:xlink="http://www.w3.org/1999/xlink">
    <title>Group 3</title>
    <defs>
        <polygon id="path-1" points="0 0 189.333333 0 189.333333 63 0 63"></polygon>
    </defs>
    <g id="Page-1" stroke="none" stroke-width="1" fill="none" fill-rule="evenodd">
        <g id="Group-3" transform="translate(2.119792, 0.036459)">
            <g id="Clipped" transform="translate(16.546875, 0.000000)">
                <mask id="mask-2" fill="white">
                    <use xlink:href="#path-1"></use>
                </mask>
                <g id="Path"></g>
                <path d="M86.6614587,35.755208 C86.9739587,35.3125 87.239584,34.8333333 87.4375,34.3125 C88.5156253,31.510416 87.1770827,28.3593747 84.4583333,27.2916667 C83.3541667,26.8593747 82.1406253,26.885416 81.0416667,27.3645827 C79.9010413,27.8645827 79.0260413,28.7916667 78.5729173,29.9687493 C77.7916667,32.010416 78.7708333,34.3072907 80.755208,35.0885413 C81.4531253,35.3645827 82.239584,35.0208333 82.5156253,34.3281253 C82.7864587,33.635416 82.4479173,32.8489573 81.75,32.5781253 C81.1406253,32.3385413 80.8489587,31.5989573 81.1041667,30.9375 C81.2916667,30.4375 81.6614587,30.0468747 82.135416,29.8385413 C82.5625,29.6458333 83.0364587,29.635416 83.4635413,29.8020827 C84.807292,30.3333333 85.4583333,31.9218747 84.9114587,33.3489573 C84.5364587,34.322916 83.8229173,35.0833333 82.8958333,35.4895827 C82.0364587,35.8645827 81.0885413,35.885416 80.2291667,35.5520827 C77.744792,34.572916 76.5364587,31.6510413 77.5364587,29.0364587 C78.192708,27.3333333 79.380208,26 80.880208,25.2864587 C82.4218747,24.5520827 84.1406253,24.510416 85.8541667,25.1614587 C87.8281253,25.9166667 89.5625,28.067708 92.182292,31.317708 C92.5364587,31.755208 92.9010413,32.2083333 93.2916667,32.6875 L94.3385413,33.9791667 L95.3906253,32.6875 C95.7812507,32.2083333 96.1458333,31.755208 96.5,31.317708 C99.119792,28.067708 100.854167,25.9166667 102.828125,25.1614587 C104.541667,24.510416 106.260416,24.5520827 107.802083,25.2864587 C109.302083,26 110.494792,27.3333333 111.145833,29.0364587 C112.145833,31.6510413 110.9375,34.572916 108.453125,35.5520827 C107.593749,35.885416 106.645833,35.8645827 105.786459,35.4895827 C104.859375,35.0833333 104.145833,34.322916 103.770833,33.3489573 C103.223959,31.9218747 103.875,30.3333333 105.218749,29.8020827 C105.645833,29.635416 106.119792,29.6458333 106.546875,29.8385413 C107.020833,30.0468747 107.385416,30.4375 107.578125,30.9375 C107.833333,31.5989573 107.541667,32.3385413 106.932292,32.5781253 C106.234375,32.8489573 105.895833,33.635416 106.166667,34.3281253 C106.442708,35.0260413 107.229167,35.3645827 107.921875,35.0885413 C109.911459,34.3072907 110.890625,32.010416 110.109375,29.9687493 C109.656251,28.7916667 108.781251,27.8645827 107.640625,27.3645827 C106.541667,26.885416 105.328125,26.8593747 104.223959,27.2916667 C101.505208,28.3593747 100.166667,31.510416 101.244792,34.3125 C101.442708,34.8333333 101.708333,35.3125 102.020833,35.760416 C100.276041,39.1822907 97.6458333,42.3385413 94.3385413,45.0468747 C91.0364587,42.3385413 88.4062507,39.1822907 86.6614587,35.755208 Z M184.723959,37.697916 C178.156251,30.0468747 167.479167,29.2968747 158.161459,35.8333333 C155.927083,37.4010413 153.781251,39.0833333 151.708333,40.7135413 C145.260416,45.7708333 139.135416,50.5781253 129.697917,52.9583333 L129.645833,52.8020827 C122.843749,55.0989573 113.776041,54.5625 105.385416,51.3645827 C102.166667,50.135416 99.2031253,48.5625 96.567708,46.7291667 C99.625,44.1562493 102.208333,41.119792 104.088541,37.6510413 C104.281251,37.765624 104.484375,37.869792 104.697917,37.9583333 C105.5,38.3125 106.348959,38.4895827 107.197917,38.4895827 C107.958333,38.4895827 108.718749,38.3489573 109.447917,38.0625 C113.307292,36.5416667 115.203125,32.0625 113.671875,28.072916 C112.770833,25.7187493 111.098959,23.8645827 108.968749,22.8489573 C106.770833,21.8020827 104.244792,21.7291667 101.859375,22.640624 C99.2031253,23.6614587 97.2864587,26.0312493 94.385416,29.625 C94.375,29.6458333 94.3541667,29.6666667 94.3385413,29.6822907 C94.3229173,29.6666667 94.307292,29.6458333 94.2916667,29.625 C91.3958333,26.0312493 89.4791667,23.6614587 86.8229173,22.640624 C84.4375,21.7291667 81.9114587,21.8020827 79.7135413,22.8489573 C77.5833333,23.8645827 75.9114587,25.7187493 75.010416,28.072916 C73.4791667,32.0625 75.375,36.5416667 79.2343747,38.0625 C80.7708333,38.6666667 82.4583333,38.630208 83.9843747,37.9583333 C84.1979173,37.869792 84.4010413,37.765624 84.5937493,37.6510413 C86.4739587,41.119792 89.057292,44.1562493 92.114584,46.7343747 C89.4791667,48.5625 86.5156253,50.135416 83.2968747,51.3645827 C74.9062507,54.5625 65.8385413,55.0989573 59.0364587,52.8020827 L58.9791667,52.9583333 C49.5416667,50.5781253 43.4218747,45.7708333 36.9739587,40.7135413 C34.9010413,39.0833333 32.755208,37.4010413 30.5208333,35.8333333 C21.2031253,29.2968747 10.5260413,30.0468747 3.95833333,37.697916 C-1.60937467,44.1770827 -0.953125333,54.0833333 5.42187467,59.7760413 C7.739584,61.8541667 10.6614587,62.9687493 13.7187493,62.9687493 C14,62.9687493 14.2760413,62.9583333 14.5520827,62.942708 C17.9114587,62.7187493 20.9791667,61.1770827 23.192708,58.5989573 C26.9270827,54.255208 26.489584,47.6093747 22.2135413,43.7916667 C20.494792,42.255208 18.2916667,41.4895827 16.010416,41.6458333 C13.7291667,41.7968747 11.6458333,42.8385413 10.1458333,44.5885413 L10.369792,44.7812493 C9.89062533,45.3333333 9.59895867,46.0468747 9.59895867,46.8281253 C9.59895867,48.5520827 10.994792,49.947916 12.7187493,49.947916 C14.4375,49.947916 15.8333333,48.5520827 15.8333333,46.8281253 C15.8333333,45.947916 15.4635413,45.1562493 14.880208,44.5885413 C15.3020827,44.4583333 15.739584,44.369792 16.192708,44.3385413 C17.739584,44.2343747 19.2343747,44.755208 20.4114587,45.8020827 C23.5937493,48.6510413 23.9218747,53.6041667 21.1406253,56.8437493 C19.4010413,58.8645827 17,60.072916 14.375,60.244792 C11.75,60.4218747 9.20833333,59.5364587 7.22395867,57.765624 C1.942708,53.0468747 1.39583333,44.8281253 6.01562533,39.4531253 C11.7135413,32.817708 20.7239587,32.265624 28.9635413,38.0416667 C31.1406253,39.567708 33.255208,41.2291667 35.3020827,42.8333333 C42.442708,48.442708 49.8281253,54.244792 61.9531253,56.3541667 L61.9583333,56.3333333 C63.9635413,56.7031253 66.0833333,56.885416 68.260416,56.885416 C77.010416,56.885416 86.7656253,53.947916 94.3385413,48.4739573 C101.916667,53.947916 111.671875,56.885416 120.421875,56.885416 C122.598959,56.885416 124.718749,56.7031253 126.723959,56.3333333 L126.729167,56.3541667 C138.854167,54.244792 146.239584,48.442708 153.380208,42.8333333 C155.427083,41.2291667 157.541667,39.567708 159.713541,38.0416667 C167.958333,32.265624 176.968749,32.817708 182.666667,39.4531253 C187.286459,44.8281253 186.739584,53.0468747 181.458333,57.765624 C179.473959,59.5364587 176.9375,60.4166667 174.307292,60.244792 C171.682292,60.072916 169.281251,58.8645827 167.541667,56.8437493 C164.760416,53.6041667 165.088541,48.6510413 168.270833,45.8020827 C169.442708,44.755208 170.942708,44.2395827 172.489584,44.3385413 C172.942708,44.369792 173.380208,44.4583333 173.802083,44.5885413 C173.213541,45.1562493 172.848959,45.947916 172.848959,46.8281253 C172.848959,48.5520827 174.244792,49.947916 175.963541,49.947916 C177.682292,49.947916 179.078125,48.5520827 179.078125,46.8281253 C179.078125,46.0468747 178.791667,45.3333333 178.3125,44.7812493 L178.536459,44.5885413 C177.036459,42.8385413 174.953125,41.7968747 172.666667,41.6458333 C170.385416,41.4895827 168.1875,42.255208 166.463541,43.7916667 C162.192708,47.6093747 161.75,54.255208 165.484375,58.5989573 C167.697917,61.1770827 170.770833,62.7187493 174.130208,62.942708 C174.406251,62.9583333 174.682292,62.9687493 174.958333,62.9687493 C178.020833,62.9687493 180.942708,61.8541667 183.265625,59.7760413 C189.635416,54.0833333 190.291667,44.1770827 184.723959,37.697916 Z M94.3385413,3.42708267 C96.567708,6.03124933 97.7812507,9.32812533 97.7812507,12.8541667 C97.7812507,16.380208 96.567708,19.6770827 94.3385413,22.2760413 C92.114584,19.6770827 90.9010413,16.380208 90.9010413,12.8541667 C90.9010413,9.32812533 92.114584,6.03124933 94.3385413,3.42708267 Z M94.3385413,25.5937493 C94.682292,25.5937493 95.0208333,25.4687493 95.2812507,25.2187493 C98.5885413,22.0208333 100.489584,17.515624 100.489584,12.8541667 C100.489584,8.1875 98.5885413,3.68229067 95.2812507,0.489582667 C94.760416,-0.0156253333 93.9270827,-0.0156253333 93.4010413,0.489582667 C90.0937493,3.68229067 88.192708,8.1875 88.192708,12.8541667 C88.192708,17.515624 90.0937493,22.0208333 93.4010413,25.2187493 C93.6614587,25.4687493 94,25.5937493 94.3385413,25.5937493" id="Shape" fill="#7F9593" fill-rule="nonzero" mask="url(#mask-2)"></path>
            </g>
            <line x1="0" y1="83.5104167" x2="222.010456" y2="83.5104167" id="Path" stroke="#D5B19B" stroke-width="3.00083412" stroke-linecap="round"></line>
            <g id="Group" transform="translate(34.699042, 115.709236)" fill="#7F9593" fill-rule="nonzero">
                <g id="Shape">
                    <path d="M-5.92118946e-16,47.3489587 L10.9583333,47.3489587 L10.9583333,46.4687507 C8.86458267,45.8593747 8.255208,44.307292 8.255208,38.7604173 L8.255208,28.614584 L13.0572907,28.614584 C25.635416,28.614584 32.197916,22.3229173 32.197916,13.3281253 C32.197916,6.76562533 27.7343747,0 13.7343747,0 L-5.92118946e-16,0 L-5.92118946e-16,0.880209333 C2.03124933,1.489584 2.70833333,3.046876 2.70833333,8.59375067 L2.70833333,38.7604173 C2.70833333,44.307292 2.03124933,45.8593747 -5.92118946e-16,46.4687507 L-5.92118946e-16,47.3489587 Z M8.255208,27.5989587 L8.255208,1.15104133 C9.067708,1.08333333 10.145832,1.01562533 11.0937493,1.01562533 C21.9843747,1.01562533 26.2447907,7.64583333 26.2447907,14.8802093 C26.2447907,22.864584 21.578124,27.5989587 12.9218747,27.5989587 L8.255208,27.5989587 Z"></path>
                </g>
            </g>
            <g id="Group" transform="translate(82.445094, 115.235277)" fill="#7F9593" fill-rule="nonzero">
                <g id="Shape">
                    <path d="M40.6510427,48.296876 C46.3333333,48.296876 53.5,41.057292 53.5,33.4166667 C53.5,29.1562507 51,25.296876 47.2083333,23.5416667 L55.057292,23.5416667 L55.3958333,22.5937507 L30.9791667,22.5937507 L30.6406253,23.5416667 L45.4531253,23.5416667 C47.5468747,24.2864587 49.1718747,30.5729173 49.1718747,34.6354173 C49.1718747,39.9114587 48.494792,45.25 45.3177093,45.25 C41.1927093,45.25 31.4531253,36.119792 23.5364587,26.921876 C18.802084,21.375 13.119792,14.2083333 13.119792,8.59375067 C13.119792,5.34375067 15.4218747,1.28645867 21.0364587,1.28645867 C24.8906253,1.28645867 29.3541667,2.57291733 32.5989587,10.1458347 L33.2083333,10.0104173 L32.4635413,2.16666667 C29.489584,0.473958667 25.7031253,0 23.0625,0 C12.5104173,0 8.58854133,6.359376 8.58854133,11.364584 C8.58854133,14.609376 9.94270933,17.7916667 12.0364587,21.239584 C3.85416667,24.0833333 -8.8817842e-16,29.359376 -8.8817842e-16,35.375 C-8.8817842e-16,42.4114587 5.34375067,48.5 13.255208,48.5 C18.734376,48.5 23.5364587,45.119792 26.7812507,38.9635427 C32.057292,44.171876 37.4687507,48.296876 40.6510427,48.296876 Z M4.734376,32.9427093 C4.734376,28.75 6.489584,24.2864587 12.5104173,21.9166667 C14.3385413,24.7552093 16.7031253,27.6666667 19.3437507,30.7760427 C21.4375,33.2812507 23.739584,35.9166667 26.109376,38.2864587 C23.6041667,42.546876 19.4791667,44.8489587 15.9635413,44.8489587 C8.859376,44.8489587 4.734376,38.8281253 4.734376,32.9427093 Z"></path>
                </g>
            </g>
            <g id="Group" transform="translate(153.785538, 115.709236)" fill="#7F9593" fill-rule="nonzero">
                <g transform="translate(0.000000, 0.000000)" id="Path">
                    <path d="M-5.92118946e-16,47.3489587 L31.453124,47.3489587 L31.9270827,39.7031253 L31.1822907,39.5729173 C28.817708,44.6458333 25.8385413,46.2656253 19.3489573,46.2656253 L11.2968747,46.2656253 C9.33854133,46.2656253 8.255208,45.182292 8.255208,43.2239587 L8.255208,8.59375067 C8.255208,3.046876 8.86458267,1.489584 10.9583333,0.880209333 L10.9583333,0 L-5.92118946e-16,0 L-5.92118946e-16,0.880209333 C2.03124933,1.489584 2.70833333,3.046876 2.70833333,8.59375067 L2.70833333,38.7604173 C2.70833333,44.307292 2.03124933,45.8593747 -5.92118946e-16,46.4687507 L-5.92118946e-16,47.3489587 Z"></path>
                </g>
            </g>
        </g>
    </g>
</svg>