<?xml version="1.0" encoding="UTF-8"?>
<svg width="588px" height="142px" viewBox="0 0 588 142" version="1.1" xmlns="http://www.w3.org/2000/svg" xmlns:xlink="http://www.w3.org/1999/xlink">
    <title>Group 2</title>
    <defs>
        <polygon id="path-1" points="0 0 204 0 204 68 0 68"></polygon>
    </defs>
    <g id="Page-1" stroke="none" stroke-width="1" fill="none" fill-rule="evenodd">
        <g id="Group-2" transform="translate(1.432293, 0.000000)">
            <g id="Clipped" transform="translate(190.567707, 0.000000)">
                <mask id="mask-2" fill="white">
                    <use xlink:href="#path-1"></use>
                </mask>
                <g id="Path"></g>
                <path d="M94.2252041,38.5611195 C94.5600259,38.0853249 94.8459413,37.5642154 95.0603776,36.9977931 C96.2190875,33.9693188 94.7744622,30.5632302 91.8475917,29.4039514 C90.6550236,28.9357085 89.3495938,28.9621418 88.1645493,29.4870262 C86.9381222,30.0270162 85.9938496,31.0276962 85.5047833,32.304036 C84.6620852,34.5130847 85.7154578,36.9977931 87.8598239,37.8436512 C88.6084711,38.1381905 89.454931,37.7681272 89.7521328,37.0204496 C90.0455718,36.2689951 89.6806537,35.4193611 88.9282447,35.1248218 C88.2698866,34.8642666 87.9538748,34.0674992 88.2285039,33.346254 C88.4354166,32.806264 88.8304311,32.383335 89.3420692,32.1605418 C89.804801,31.9528541 90.3126773,31.9415255 90.7754091,32.1227807 C92.2237962,32.6967558 92.923536,34.4149042 92.336657,35.9555742 C91.934118,37.0091209 91.1591372,37.8323225 90.1621955,38.274132 C89.2329701,38.6819564 88.2134557,38.7046128 87.2917549,38.3383263 C84.609417,37.2810038 83.307749,34.1203649 84.3874561,31.2920273 C85.0909588,29.4530411 86.3700541,28.0105506 87.9914948,27.2326638 C89.6543192,26.4396714 91.5052453,26.3943585 93.3524097,27.1042741 C95.4817267,27.9199229 97.347701,30.2460325 100.172997,33.7616302 C100.552963,34.2336489 100.947979,34.7283251 101.365565,35.2418818 L102.49794,36.6390585 L103.634078,35.2418818 C104.051666,34.7283251 104.44668,34.2336489 104.826646,33.7616302 C107.651943,30.2460325 109.517917,27.9199229 111.647234,27.1042741 C113.494398,26.3981344 115.345324,26.4396714 117.008149,27.2326638 C118.629589,28.0105506 119.908686,29.4530411 120.612187,31.2920273 C121.691895,34.1203649 120.390227,37.2810038 117.707889,38.3383263 C116.786188,38.7046128 115.762912,38.6819564 114.837448,38.274132 C113.836745,37.8323225 113.069287,37.0091209 112.662986,35.9555742 C112.076107,34.4149042 112.775848,32.6967558 114.224235,32.1227807 C114.686966,31.9415255 115.194843,31.9528541 115.657574,32.1605418 C116.165451,32.383335 116.564227,32.806264 116.77114,33.346254 C117.045769,34.0674992 116.729757,34.8642666 116.067637,35.1248218 C115.31899,35.4193611 114.954072,36.2689951 115.247512,37.0204496 C115.544713,37.771904 116.391173,38.1381905 117.139821,37.8436512 C119.284186,36.9977931 120.337558,34.5130847 119.49486,32.304036 C119.005795,31.0276962 118.061521,30.0270162 116.835094,29.4870262 C115.653813,28.9621418 114.344621,28.9357085 113.152052,29.4039514 C110.225181,30.5632302 108.780556,33.9693188 109.939266,36.9977931 C110.153702,37.5642154 110.439618,38.0853249 110.774439,38.5648955 C108.900941,42.2730771 106.06436,45.6867185 102.49794,48.6132355 C98.9352845,45.6867185 96.098702,42.2730771 94.2252041,38.5611195 Z M199.923621,40.6644359 C192.843452,32.3871109 181.335357,31.5790149 171.290696,38.6441944 C168.882987,40.3396873 166.569329,42.1597921 164.334675,43.9232553 C157.386178,49.3986751 150.783788,54.598437 140.614981,57.1737722 L140.554789,57.0038456 C133.222562,59.4885531 123.445007,58.9032502 114.408575,55.4442951 C110.932446,54.1188655 107.73847,52.4195966 104.901887,50.4333412 C108.193677,47.6503175 110.981352,44.3650648 113.005333,40.6115703 C113.216007,40.7361831 113.434205,40.8456912 113.659928,40.9476476 C114.528961,41.3290387 115.443138,41.5216227 116.361077,41.5216227 C117.181202,41.5216227 117.997566,41.3668007 118.780071,41.0571557 C122.944655,39.4145304 124.987446,34.5659503 123.335908,30.2498094 C122.365301,27.7046825 120.563281,25.6995465 118.264671,24.5969092 C115.898345,23.4678405 113.178386,23.3885406 110.601386,24.3778929 C107.73847,25.4767533 105.676869,28.0445367 102.550609,31.9301968 C102.535561,31.9528541 102.516751,31.9717347 102.49794,31.9943911 C102.482893,31.9717347 102.464082,31.9490773 102.449034,31.9301968 C99.3227753,28.0445367 97.2611737,25.4767533 94.3982577,24.3778929 C91.8212571,23.3885406 89.1012983,23.4678405 86.7349722,24.5969092 C84.4363625,25.6995465 82.6343427,27.7046825 81.6637356,30.2498094 C80.0121976,34.5659503 82.0549882,39.4145304 86.2195723,41.0571557 C87.8748721,41.7104307 89.6919401,41.6726687 91.3397153,40.9476476 C91.565438,40.8456912 91.7836362,40.7361831 91.9943107,40.6115703 C94.0182914,44.3650648 96.8059665,47.6503175 100.097756,50.4371171 C97.2611737,52.4195966 94.0671977,54.1188655 90.5910681,55.4442951 C81.5546365,58.9032502 71.7808431,59.4885531 64.4448558,57.0038456 L64.384663,57.1737722 C54.2120933,54.598437 47.6134659,49.3986751 40.6649695,43.9232553 C38.4303143,42.1597921 36.1166563,40.3396873 33.7089475,38.6441944 C23.6642878,31.5790149 12.1561919,32.3871109 5.07602268,40.6644359 C-0.924438396,47.6729739 -0.217173933,58.3896936 6.65231978,64.5485976 C9.15408044,66.7916314 12.3029119,68 15.5984633,68 C15.8994269,68 16.1966287,67.9886713 16.4975923,67.9697908 C20.1204409,67.731893 23.4272787,66.0628343 25.8124148,63.2760337 C29.8378034,58.5709489 29.3637853,51.3849315 24.7552804,47.2538208 C22.9043542,45.592314 20.5267418,44.7691133 18.0701266,44.9314881 C15.6097487,45.0938629 13.3638081,46.2267075 11.7423674,48.1185603 L11.9869001,48.3262489 C11.475262,48.9228804 11.1592502,49.6932154 11.1592502,50.5428494 C11.1592502,52.404493 12.6640682,53.9149538 14.5187561,53.9149538 C16.3734441,53.9149538 17.8782621,52.404493 17.8782621,50.5428494 C17.8782621,49.5874832 17.4794858,48.7302965 16.8474623,48.1147844 C17.3026695,47.9750661 17.7766866,47.8806625 18.2619912,47.8466774 C19.9285774,47.7333923 21.5462562,48.2998156 22.8103034,49.4326612 C26.2450502,52.5102243 26.5986829,57.8685841 23.5965705,61.37663 C21.7230726,63.5592453 19.1347856,64.8695703 16.301965,65.0546015 C13.4766699,65.2434096 10.7379011,64.2880424 8.59729681,62.3735341 C2.90156114,57.2643998 2.31468212,48.3791146 7.29186791,42.5600647 C13.4352872,35.385376 23.1451251,34.7849676 32.0310759,41.0344993 C34.3748302,42.6846775 36.654629,44.4821258 38.8591879,46.2191557 C46.5563315,52.2874321 54.5168187,58.5596202 67.5899254,60.8441918 L67.5936872,60.8215354 C69.7568633,61.221807 72.0366621,61.4219429 74.38794,61.4219429 C83.8193871,61.4219429 94.3343032,58.2461993 102.49794,52.3176413 C110.66534,58.2461993 121.176495,61.4219429 130.607941,61.4219429 C132.95922,61.4219429 135.24278,61.221807 137.405956,60.8215354 L137.409718,60.8441918 C150.482825,58.5596202 158.43955,52.2874321 166.136695,46.2191557 C168.345014,44.4821258 170.624814,42.6846775 172.968569,41.0344993 C181.850757,34.7849676 191.564356,35.385376 197.707777,42.5600647 C202.6812,48.3791146 202.098082,57.2643998 196.402347,62.3735341 C194.261742,64.2880424 191.526736,65.2434096 188.697678,65.0546015 C185.864858,64.8695703 183.276571,63.5592453 181.403073,61.37663 C178.400961,57.8685841 178.754593,52.5102243 182.18934,49.4326612 C183.453387,48.2998156 185.071067,47.7371683 186.737652,47.8466774 C187.222957,47.8806625 187.696974,47.9750661 188.152181,48.1147844 C187.520158,48.7302965 187.121381,49.5874832 187.121381,50.5428494 C187.121381,52.404493 188.626199,53.9149538 190.480887,53.9149538 C192.335575,53.9149538 193.840393,52.404493 193.840393,50.5428494 C193.840393,49.6932154 193.524382,48.9228804 193.012744,48.3262489 L193.257277,48.1185603 C191.635835,46.2267075 189.389895,45.0938629 186.929517,44.9314881 C184.465378,44.7691133 182.095289,45.592314 180.244363,47.2538208 C175.635858,51.3849315 175.16184,58.5709489 179.187229,63.2760337 C181.572365,66.0628343 184.879203,67.731893 188.502052,67.9697908 C188.803016,67.9886713 189.100218,68 189.401181,68 C192.696732,68 195.845564,66.7916314 198.351086,64.5485976 C205.216817,58.3896936 205.924083,47.6729739 199.923621,40.6644359 Z M102.49794,3.59395266 C104.901887,6.4034097 106.207317,9.97187303 106.207317,13.785787 C106.207317,17.5996999 104.901887,21.1681642 102.49794,23.9813972 C100.097756,21.1681642 98.7923263,17.5996999 98.7923263,13.785787 C98.7923263,9.97187303 100.097756,6.4034097 102.49794,3.59395266 Z M102.49794,27.5725179 C102.866621,27.5725179 103.231539,27.4365755 103.513693,27.1609166 C107.080112,23.7057383 109.126664,18.8307259 109.126664,13.785787 C109.126664,8.74084798 107.080112,3.8658356 103.513693,0.410656341 C102.949386,-0.136885447 102.050258,-0.136885447 101.48595,0.410656341 C97.9195318,3.8658356 95.8729793,8.74084798 95.8729793,13.785787 C95.8729793,18.8307259 97.9195318,23.7057383 101.48595,27.1609166 C101.768104,27.4365755 102.133022,27.5725179 102.49794,27.5725179" id="Shape" fill="#7F9593" fill-rule="nonzero" mask="url(#mask-2)"></path>
            </g>
            <line x1="0.0677071383" y1="81.5" x2="585.015795" y2="81.265625" id="Path" stroke="#D5B19B" stroke-width="3.00052805" stroke-linecap="round"></line>
            <g id="Group" transform="translate(16.833680, 103.324576)" fill="#7F9593" fill-rule="nonzero">
                <g id="Shape">
                    <path d="M0,38.010416 L8.79687467,38.010416 L8.79687467,37.3020827 C7.10937467,36.817708 6.625,35.567708 6.625,31.1145827 L6.625,22.9687493 L10.4791667,22.9687493 C20.5781253,22.9687493 25.8437507,17.9218747 25.8437507,10.697916 C25.8437507,5.43229067 22.2604173,0 11.0208333,0 L0,0 L0,0.708333333 C1.625,1.192708 2.17187467,2.442708 2.17187467,6.895832 L2.17187467,31.1145827 C2.17187467,35.567708 1.625,36.817708 0,37.3020827 L0,38.010416 Z M6.625,22.1562493 L6.625,0.921874667 C7.27604133,0.869790667 8.14583333,0.812498667 8.90624933,0.812498667 C17.6458333,0.812498667 21.067708,6.135416 21.067708,11.947916 C21.067708,18.3541653 17.317708,22.1562493 10.369792,22.1562493 L6.625,22.1562493 Z"></path>
                </g>
            </g>
            <g id="Group" transform="translate(45.882335, 103.324576)" fill="#7F9593" fill-rule="nonzero">
                <g id="Shape">
                    <path d="M27.6354173,38.390624 C28.7239587,38.390624 30.1354173,38.2812493 30.947916,38.010416 L30.947916,37.3593747 C30.677084,37.4114573 30.4062493,37.4114573 30.0781253,37.4114573 C28.2343747,37.4114573 27.1510413,35.6197907 24.5416667,29.1041653 C21.9375,22.4270827 20.9062493,19.1145827 14.2239587,18.2447907 C21.2864587,17.4322907 24.9739587,13.572916 24.9739587,8.46874933 C24.9739587,3.640624 21.7187507,0 10.697916,0 L0,0 L0,0.708333333 C1.682292,1.192708 2.17187467,2.442708 2.17187467,6.895832 L2.17187467,31.1145827 C2.17187467,35.567708 1.682292,36.817708 0,37.3020827 L0,38.010416 L8.79687467,38.010416 L8.79687467,37.3020827 C7.10937467,36.817708 6.625,35.567708 6.625,31.1145827 L6.625,18.4062493 L10.0989587,18.4062493 C16.6145827,18.4062493 17.0468747,22.2083333 20.197916,29.703124 C22.5885413,35.3489573 23.4583333,38.390624 27.6354173,38.390624 Z M6.625,17.5937493 L6.625,0.921874667 C7.48958267,0.869790667 8.35937467,0.812498667 9.177084,0.812498667 C17.2135413,0.812498667 20.3593747,4.885416 20.3593747,9.71874933 C20.3593747,14.3333333 17.427084,17.5937493 11.182292,17.5937493 L6.625,17.5937493 Z"></path>
                </g>
            </g>
            <g id="Group" transform="translate(78.188818, 103.324576)" fill="#7F9593" fill-rule="nonzero">
                <g transform="translate(-0.000000, 0.000000)" id="Path">
                    <path d="M0,38.010416 L8.79687467,38.010416 L8.79687467,37.3020827 C7.10937467,36.817708 6.625,35.567708 6.625,31.1145827 L6.625,6.895832 C6.625,2.442708 7.10937467,1.192708 8.79687467,0.708333333 L8.79687467,0 L0,0 L0,0.708333333 C1.625,1.192708 2.17187467,2.442708 2.17187467,6.895832 L2.17187467,31.1145827 C2.17187467,35.567708 1.625,36.817708 0,37.3020827 L0,38.010416 Z"></path>
                </g>
            </g>
            <g id="Group" transform="translate(91.000984, 102.944367)" fill="#7F9593" fill-rule="nonzero">
                <g id="Path">
                    <path d="M13.302084,38.932292 C19.7135413,38.932292 26.0104173,34.807292 26.0104173,28.0208333 C26.0104173,21.8854173 20.364584,19.494792 14.3333333,17.1041667 C9.71875067,15.2031253 4.125,13.1406253 4.125,8.03645867 C4.125,3.421876 7.875,0.869792 12.2708333,0.869792 C18.4635413,0.869792 22.2656253,4.23437467 24.2708333,8.95833333 L24.8177093,8.796876 L24.5989587,2.5 C22.4791667,1.35937467 18.9531253,0 14.0104173,0 C6.02604267,0 0.760417333,4.02083333 0.760417333,10.369792 C0.760417333,16.1302093 4.83333333,18.4062507 11.239584,20.9583333 C15.802084,22.807292 22.4791667,25.302084 22.4791667,30.7343747 C22.4791667,35.1302093 18.734376,37.9583333 14.3906253,37.9583333 C6.84375067,37.9583333 2.71354133,33.125 0.598958667,27.421876 L-8.8817842e-16,27.5312507 L0.270833333,35.0781253 C2.82291733,36.927084 7.60416667,38.932292 13.302084,38.932292 Z"></path>
                </g>
            </g>
            <g id="Group" transform="translate(120.646395, 102.944367)" fill="#7F9593" fill-rule="nonzero">
                <g id="Path">
                    <path d="M20.4739573,38.932292 C26.5520827,38.932292 31.7135413,37.4114587 34.265624,36 L35.130208,28.942708 L34.5364573,28.8906253 C32.4166667,34.75 27.8541653,37.8489587 21.9895827,37.8489587 C10.697916,37.8489587 4.505208,28.0729173 4.56249867,17.864584 C4.56249867,6.78645867 11.2395827,1.03125067 19.875,1.03125067 C26.3385413,1.03125067 31.4947907,4.34375067 33.6145827,9.28645867 L34.1562493,9.177084 L33.9374987,2.71354267 C31.822916,1.35937467 26.390624,0 21.7187493,0 C8.95833333,0 -5.92118946e-16,8.57812533 -5.92118946e-16,20.1458333 C-5.92118946e-16,31.9843747 7.98437467,38.932292 20.4739573,38.932292 Z"></path>
                </g>
            </g>
            <g id="Group" transform="translate(159.905100, 103.324576)" fill="#7F9593" fill-rule="nonzero">
                <g id="Path">
                    <path d="M0,38.010416 L8.79687467,38.010416 L8.79687467,37.3020827 C7.10937467,36.817708 6.625,35.567708 6.625,31.1145827 L6.625,6.895832 C6.625,2.442708 7.10937467,1.192708 8.79687467,0.708333333 L8.79687467,0 L0,0 L0,0.708333333 C1.625,1.192708 2.17187467,2.442708 2.17187467,6.895832 L2.17187467,31.1145827 C2.17187467,35.567708 1.625,36.817708 0,37.3020827 L0,38.010416 Z"></path>
                </g>
            </g>
            <g id="Group" transform="translate(173.316232, 103.324576)" fill="#7F9593" fill-rule="nonzero">
                <g transform="translate(0.000000, 0.000000)" id="Path">
                    <path d="M0,38.010416 L25.25,38.010416 L25.630208,31.875 L25.0312493,31.765624 C23.130208,35.8385413 20.7395827,37.140624 15.5260413,37.140624 L9.067708,37.140624 C7.48958267,37.140624 6.625,36.270832 6.625,34.697916 L6.625,6.895832 C6.625,2.442708 7.10937467,1.192708 8.79687467,0.708333333 L8.79687467,0 L0,0 L0,0.708333333 C1.625,1.192708 2.17187467,2.442708 2.17187467,6.895832 L2.17187467,31.1145827 C2.17187467,35.567708 1.625,36.817708 0,37.3020827 L0,38.010416 Z"></path>
                </g>
            </g>
            <g id="Group" transform="translate(201.876228, 103.324576)" fill="#7F9593" fill-rule="nonzero">
                <g transform="translate(0.000000, 0.000000)" id="Path">
                    <path d="M0,38.010416 L25.25,38.010416 L25.630208,31.875 L25.0312493,31.765624 C23.130208,35.8385413 20.7395827,37.140624 15.5260413,37.140624 L9.067708,37.140624 C7.48958267,37.140624 6.625,36.270832 6.625,34.697916 L6.625,6.895832 C6.625,2.442708 7.10937467,1.192708 8.79687467,0.708333333 L8.79687467,0 L0,0 L0,0.708333333 C1.625,1.192708 2.17187467,2.442708 2.17187467,6.895832 L2.17187467,31.1145827 C2.17187467,35.567708 1.625,36.817708 0,37.3020827 L0,38.010416 Z"></path>
                </g>
            </g>
            <g id="Group" transform="translate(226.743518, 102.892284)" fill="#7F9593" fill-rule="nonzero">
                <g id="Shape">
                    <path d="M8.8817842e-16,38.442708 L6.135416,38.442708 L6.135416,37.7343747 C4.28645867,37.3541667 4.072916,35.5625 5.48437467,32.0364573 L8.6875,24.1093747 L24,24.1093747 L27.3125,32.0885413 C29.0468747,36.1614573 29.4843747,37.25 27.8020827,37.7343747 L27.8020827,38.442708 L36.2187493,38.442708 L36.2187493,37.7343747 C35.0781253,37.25 33.7708333,36.1614573 32.0885413,32.0885413 L18.7343747,0 L14.6614587,1.84374933 L15.1510413,2.98437467 C15.5833333,3.85416667 15.635416,4.557292 15.255208,5.53645733 L4.5625,32.0364573 C2.875,36.1614573 1.52083333,37.25 8.8817842e-16,37.7343747 L8.8817842e-16,38.442708 Z M9.010416,23.2916667 L16.2343747,5.42708267 L23.6718747,23.2916667 L9.010416,23.2916667 Z"></path>
                </g>
            </g>
            <g id="Group" transform="translate(279.567707, 111.000000)" fill="#7F9593" fill-rule="nonzero">
                <g id="Shape">
                    <path d="M19.8128587,23.900468 C22.5827381,23.900468 26.0767069,20.3173242 26.0767069,16.5351173 C26.0767069,14.4288966 24.8561896,12.5185285 23.0096033,11.648428 L26.8355779,11.648428 L27,11.1796659 L15.0983719,11.1796659 L14.9339498,11.648428 L22.1527112,11.648428 C23.1771871,12.017659 23.9676774,15.1288293 23.9676774,17.1387294 C23.9676774,19.7490301 23.6356715,22.3946488 22.0863102,22.3946488 C20.0784636,22.3946488 15.3291958,17.87398 11.4716003,13.3212037 C9.16652964,10.5792643 6.3966502,7.02822716 6.3966502,4.25096986 C6.3966502,2.64561871 7.51598545,0.635719469 10.2542449,0.635719469 C12.1324512,0.635719469 14.3078816,1.27143812 15.888863,5.02153842 L16.1860871,4.95411388 L15.8256238,1.07237498 C14.3742826,0.234381885 12.5276963,0 11.2407773,0 C6.0994261,0 4.18643798,3.14648827 4.18643798,5.62515045 C4.18643798,7.23050161 4.84728882,8.80374615 5.86860301,10.5118398 C1.88136728,11.918127 0,14.5284278 0,17.5079595 C0,20.9883616 2.60545737,24 6.46305122,24 C9.13174865,24 11.4716003,22.3272243 13.0557443,19.2802672 C15.6264199,21.8584614 18.2634973,23.900468 19.8128587,23.900468 Z M2.30823246,16.3007354 C2.30823246,14.2266222 3.16512459,12.017659 6.0994261,10.8457528 C6.99109921,12.25204 8.14205368,13.6904347 9.42897275,15.2315718 C10.450287,16.4676928 11.5727831,17.774448 12.7269002,18.9463541 C11.5063821,21.0557862 9.49537377,22.1923744 7.78159032,22.1923744 C4.31924082,22.1923744 2.30823246,19.2128426 2.30823246,16.3007354 Z"></path>
                </g>
            </g>
            <g id="Group" transform="translate(330.884722, 103.324576)" fill="#7F9593" fill-rule="nonzero">
                <g id="Path">
                    <path d="M0,38.010416 L25.25,38.010416 L25.630208,31.875 L25.0312493,31.765624 C23.130208,35.8385413 20.7395827,37.140624 15.5260413,37.140624 L9.067708,37.140624 C7.48958267,37.140624 6.625,36.270832 6.625,34.697916 L6.625,6.895832 C6.625,2.442708 7.10937467,1.192708 8.79687467,0.708333333 L8.79687467,0 L0,0 L0,0.708333333 C1.625,1.192708 2.17187467,2.442708 2.17187467,6.895832 L2.17187467,31.1145827 C2.17187467,35.567708 1.625,36.817708 0,37.3020827 L0,38.010416 Z"></path>
                </g>
            </g>
            <g id="Group" transform="translate(359.496802, 102.892284)" fill="#7F9593" fill-rule="nonzero">
                <g transform="translate(0.000000, 0.000000)" id="Shape">
                    <path d="M19.3333333,38.9843747 C28.453124,38.9843747 38.5520827,33.010416 38.5520827,19.5989587 C38.5520827,6.29687467 28.510416,0 19.3333333,0 C7.817708,0 1.77635684e-15,8.25 1.77635684e-15,19.385416 C1.77635684e-15,32.8489587 10.0989573,38.9843747 19.3333333,38.9843747 Z M4.34374933,16.2343747 C4.020832,7.385416 8.85416533,1.24479067 17.1041653,1.24479067 C26.822916,1.24479067 33.9374987,11.8333333 34.317708,23.182292 C34.5885413,31.328124 30.3020827,37.630208 21.6145827,37.630208 C11.890624,37.630208 4.72395733,27.1458333 4.34374933,16.2343747 Z"></path>
                </g>
            </g>
            <g id="Group" transform="translate(402.664870, 103.324576)" fill="#7F9593" fill-rule="nonzero">

                <g id="Shape">
                    <path d="M27.6354173,38.390624 C28.7239587,38.390624 30.1354173,38.2812493 30.947916,38.010416 L30.947916,37.3593747 C30.677084,37.4114573 30.4062493,37.4114573 30.0781253,37.4114573 C28.2343747,37.4114573 27.1510413,35.6197907 24.5416667,29.1041653 C21.9375,22.4270827 20.9062493,19.1145827 14.2239587,18.2447907 C21.2864587,17.4322907 24.9739587,13.572916 24.9739587,8.46874933 C24.9739587,3.640624 21.7187507,0 10.697916,0 L0,0 L0,0.708333333 C1.682292,1.192708 2.17187467,2.442708 2.17187467,6.895832 L2.17187467,31.1145827 C2.17187467,35.567708 1.682292,36.817708 0,37.3020827 L0,38.010416 L8.79687467,38.010416 L8.79687467,37.3020827 C7.10937467,36.817708 6.625,35.567708 6.625,31.1145827 L6.625,18.4062493 L10.0989587,18.4062493 C16.6145827,18.4062493 17.0468747,22.2083333 20.197916,29.703124 C22.5885413,35.3489573 23.4583333,38.390624 27.6354173,38.390624 Z M6.625,17.5937493 L6.625,0.921874667 C7.48958267,0.869790667 8.35937467,0.812498667 9.177084,0.812498667 C17.2135413,0.812498667 20.3593747,4.885416 20.3593747,9.71874933 C20.3593747,14.3333333 17.427084,17.5937493 11.182292,17.5937493 L6.625,17.5937493 Z"></path>
                </g>
            </g>
            <g id="Group" transform="translate(434.971356, 103.324576)" fill="#7F9593" fill-rule="nonzero">
                <g id="Path">
                    <path d="M0,38.010416 L26.7708333,38.010416 L27.2031253,30.7864573 L26.6041667,30.6822907 C24.6510413,35.7291653 21.3385413,37.197916 16.125,37.197916 L9.067708,37.197916 C7.48958267,37.197916 6.625,36.328124 6.625,34.75 L6.625,18.0833333 L13.572916,18.0833333 C19.7656253,18.0833333 21.3385413,19.3333333 21.9895827,21.7760413 L22.6406253,21.7760413 L22.6406253,13.572916 L21.9895827,13.572916 C21.3385413,16.020832 19.7656253,17.265624 13.572916,17.265624 L6.625,17.265624 L6.625,0.812498667 L14.6041667,0.812498667 C20.1458333,0.812498667 23.3489587,2.442708 25.25,7.22395733 L25.8437507,7.05729067 L25.25,0 L0,0 L0,0.708333333 C1.625,1.192708 2.17187467,2.442708 2.17187467,6.895832 L2.17187467,31.1145827 C2.17187467,35.567708 1.625,36.817708 0,37.3020827 L0,38.010416 Z"></path>
                </g>
            </g>
            <g id="Group" transform="translate(465.430043, 103.324576)" fill="#7F9593" fill-rule="nonzero">
                <g id="Path">
                    <path d="M29.2656253,38.442708 L29.9739587,38.442708 L29.9739587,6.895832 C29.9739587,2.442708 30.4635413,1.192708 32.1458333,0.708333333 L32.1458333,0 L25.302084,0 L25.302084,0.708333333 C27.75,1.35937467 29.052084,2.880208 29.052084,9.067708 L29.052084,30.7343747 L5.32291733,0 L-8.8817842e-16,0 L-8.8817842e-16,0.708333333 C2.17187467,1.192708 2.82291733,2.442708 2.82291733,6.895832 L2.82291733,31.1145827 C2.82291733,35.567708 2.28125067,36.817708 0.651042667,37.3020827 L0.651042667,38.010416 L7.4375,38.010416 L7.4375,37.3020827 C4.994792,36.6510413 3.69270933,35.130208 3.69270933,28.942708 L3.69270933,5.16145733 L29.2656253,38.442708 Z"></path>
                </g>
            </g>
            <g id="Group" transform="translate(499.963094, 103.324576)" fill="#7F9593" fill-rule="nonzero">
                <g id="Path">
                    <path d="M8.8817842e-16,38.010416 L25.4114573,38.010416 L26.3906253,29.8645827 L25.8489587,29.8645827 C23.6718747,35.3489573 21.5,37.140624 14.7708333,37.140624 L4.99479067,37.140624 L26.0625,0.708333333 L26.0625,0 L1.84374933,0 L0.979166667,7.60416533 L1.572916,7.60416533 C3.53124933,2.60937467 6.02604133,0.869790667 11.510416,0.869790667 L20.9062493,0.869790667 L8.8817842e-16,37.3020827 L8.8817842e-16,38.010416 Z"></path>
                </g>
            </g>
            <g id="Group" transform="translate(529.390928, 102.892284)" fill="#7F9593" fill-rule="nonzero">
                <g transform="translate(0.000000, 0.000000)" id="Shape">
                    <path d="M19.3333333,38.9843747 C28.453124,38.9843747 38.5520827,33.010416 38.5520827,19.5989587 C38.5520827,6.29687467 28.510416,0 19.3333333,0 C7.817708,0 1.77635684e-15,8.25 1.77635684e-15,19.385416 C1.77635684e-15,32.8489587 10.0989573,38.9843747 19.3333333,38.9843747 Z M4.34374933,16.2343747 C4.020832,7.385416 8.85416533,1.24479067 17.1041653,1.24479067 C26.822916,1.24479067 33.9374987,11.8333333 34.317708,23.182292 C34.5885413,31.328124 30.3020827,37.630208 21.6145827,37.630208 C11.890624,37.630208 4.72395733,27.1458333 4.34374933,16.2343747 Z"></path>
                </g>
            </g>
        </g>
    </g>
</svg>