<?xml version="1.0" encoding="UTF-8"?>
<svg width="623px" height="170px" viewBox="0 0 623 170" version="1.1" xmlns="http://www.w3.org/2000/svg" xmlns:xlink="http://www.w3.org/1999/xlink">
    <title>Group 2</title>
    <defs>
        <polygon id="path-1" points="0 0 282.666667 0 282.666667 94 0 94"></polygon>
    </defs>
    <g id="Page-1" stroke="none" stroke-width="1" fill="none" fill-rule="evenodd">
        <g id="Group-2" transform="translate(2.432293, 0.630208)">
            <g id="Clipped" transform="translate(168.567707, 0.000000)">
                <mask id="mask-2" fill="white">
                    <use xlink:href="#path-1"></use>
                </mask>
                <g id="Path"></g>
                <path d="M129.557292,53.3489587 C130.020833,52.6927093 130.416667,51.9739587 130.713541,51.1927093 C132.317708,47.0156253 130.317708,42.3177093 126.265625,40.7187507 C124.614584,40.0729173 122.807292,40.109376 121.166667,40.8333333 C119.468749,41.5781253 118.161459,42.9583333 117.484375,44.7187507 C116.317708,47.7656253 117.776041,51.1927093 120.744792,52.359376 C121.781251,52.7656253 122.953125,52.255208 123.364584,51.2239587 C123.770833,50.1875 123.265625,49.0156253 122.223959,48.609376 C121.3125,48.25 120.875,47.1510427 121.255208,46.1562507 C121.541667,45.4114587 122.088541,44.8281253 122.796875,44.5208333 C123.4375,44.234376 124.140625,44.2187507 124.781251,44.4687507 C126.786459,45.2604173 127.755208,47.630208 126.942708,49.755208 C126.385416,51.2083333 125.3125,52.3437507 123.932292,52.9531253 C122.645833,53.5156253 121.234375,53.5468747 119.958333,53.0416667 C116.244792,51.5833333 114.442708,47.2239587 115.9375,43.3229173 C116.911459,40.7864587 118.682292,38.7968747 120.927083,37.7239587 C123.229167,36.630208 125.791667,36.5677093 128.348959,37.5468747 C131.296875,38.6718747 133.880208,41.880208 137.791667,46.7291667 C138.317708,47.380208 138.864584,48.0625 139.442708,48.7708333 L141.010416,50.6979173 L142.583333,48.7708333 C143.161459,48.0625 143.708333,47.380208 144.234375,46.7291667 C148.145833,41.880208 150.729167,38.6718747 153.677083,37.5468747 C156.234375,36.5729173 158.796875,36.630208 161.098959,37.7239587 C163.343749,38.7968747 165.114584,40.7864587 166.088541,43.3229173 C167.583333,47.2239587 165.781251,51.5833333 162.067708,53.0416667 C160.791667,53.5468747 159.375,53.5156253 158.093749,52.9531253 C156.708333,52.3437507 155.645833,51.2083333 155.083333,49.755208 C154.270833,47.630208 155.239584,45.2604173 157.244792,44.4687507 C157.885416,44.2187507 158.588541,44.234376 159.229167,44.5208333 C159.932292,44.8281253 160.484375,45.4114587 160.770833,46.1562507 C161.151041,47.1510427 160.713541,48.25 159.796875,48.609376 C158.760416,49.0156253 158.255208,50.1875 158.661459,51.2239587 C159.072917,52.2604173 160.244792,52.7656253 161.281251,52.359376 C164.25,51.1927093 165.708333,47.7656253 164.541667,44.7187507 C163.864584,42.9583333 162.557292,41.5781253 160.859375,40.8333333 C159.223959,40.109376 157.411459,40.0729173 155.760416,40.7187507 C151.708333,42.3177093 149.708333,47.0156253 151.3125,51.1927093 C151.609375,51.9739587 152.005208,52.6927093 152.468749,53.3541667 C149.875,58.4687507 145.947917,63.177084 141.010416,67.2135413 C136.078125,63.177084 132.151041,58.4687507 129.557292,53.3489587 Z M275.890625,56.25 C266.088541,44.8333333 250.156251,43.7187507 236.25,53.4635413 C232.916667,55.802084 229.713541,58.3125 226.619792,60.744792 C217,68.2968747 207.859375,75.4687507 193.781251,79.0208333 L193.697917,78.7864587 C183.546875,82.2135413 170.010416,81.4062507 157.5,76.6354173 C152.6875,74.807292 148.265625,72.4635413 144.338541,69.7239587 C148.895833,65.8854173 152.755208,61.3541667 155.557292,56.177084 C155.848959,56.3489587 156.151041,56.5 156.463541,56.6406253 C157.666667,57.1666667 158.932292,57.432292 160.203125,57.432292 C161.338541,57.432292 162.468749,57.2187507 163.552083,56.7916667 C169.317708,54.5260427 172.145833,47.8385413 169.859375,41.8854173 C168.515625,38.375 166.020833,35.609376 162.838541,34.0885413 C159.5625,32.5312507 155.796875,32.4218747 152.229167,33.7864587 C148.265625,35.302084 145.411459,38.8437507 141.083333,44.2031253 C141.0625,44.234376 141.036459,44.2604173 141.010416,44.2916667 C140.989584,44.2604173 140.963541,44.2291667 140.942708,44.2031253 C136.614584,38.8437507 133.760416,35.302084 129.796875,33.7864587 C126.229167,32.4218747 122.463541,32.5312507 119.1875,34.0885413 C116.005208,35.609376 113.510416,38.375 112.166667,41.8854173 C109.880208,47.8385413 112.708333,54.5260427 118.473959,56.7916667 C120.765625,57.6927093 123.281251,57.6406253 125.5625,56.6406253 C125.875,56.5 126.177083,56.3489587 126.468749,56.177084 C129.270833,61.3541667 133.130208,65.8854173 137.6875,69.7291667 C133.760416,72.4635413 129.338541,74.807292 124.526041,76.6354173 C112.015625,81.4062507 98.4843747,82.2135413 88.3281253,78.7864587 L88.244792,79.0208333 C74.1614587,75.4687507 65.0260413,68.2968747 55.4062507,60.744792 C52.3125,58.3125 49.1093747,55.802084 45.7760413,53.4635413 C31.869792,43.7187507 15.9375,44.8333333 6.135416,56.25 C-2.17187467,65.9166667 -1.192708,80.6979173 8.317708,89.1927093 C11.7812507,92.2864587 16.1406253,93.9531253 20.7031253,93.9531253 C21.119792,93.9531253 21.5312507,93.9375 21.9479173,93.9114587 C26.9635413,93.5833333 31.5416667,91.2812507 34.8437493,87.4375 C40.4166667,80.9479173 39.760416,71.0364587 33.380208,65.3385413 C30.817708,63.0468747 27.5260413,61.9114587 24.125,62.1354173 C20.7187493,62.359376 17.6093747,63.9218747 15.364584,66.5312507 L15.7031253,66.8177093 C14.994792,67.6406253 14.557292,68.7031253 14.557292,69.875 C14.557292,72.4427093 16.6406253,74.5260427 19.2083333,74.5260427 C21.7760413,74.5260427 23.8593747,72.4427093 23.8593747,69.875 C23.8593747,68.557292 23.307292,67.375 22.432292,66.5260427 C23.0625,66.3333333 23.7187493,66.2031253 24.3906253,66.1562507 C26.6979173,66 28.9375,66.7812507 30.6875,68.3437507 C35.442708,72.5885413 35.932292,79.9791667 31.7760413,84.8177093 C29.182292,87.8281253 25.5989587,89.6354173 21.6770827,89.8906253 C17.7656253,90.1510427 13.9739587,88.8333333 11.010416,86.1927093 C3.125,79.1458333 2.3125,66.8906253 9.20312533,58.864584 C17.7083333,48.9687507 31.1510413,48.1406253 43.4531253,56.7604173 C46.6979173,59.0364587 49.8541667,61.5156253 52.9062507,63.9114587 C63.5625,72.2812507 74.5833333,80.932292 92.682292,84.0833333 L92.6875,84.052084 C95.682292,84.6041667 98.8385413,84.880208 102.093749,84.880208 C115.151041,84.880208 129.708333,80.5 141.010416,72.3229173 C152.317708,80.5 166.869792,84.880208 179.927083,84.880208 C183.182292,84.880208 186.343749,84.6041667 189.338541,84.052084 L189.343749,84.0833333 C207.442708,80.932292 218.458333,72.2812507 229.114584,63.9114587 C232.171875,61.5156253 235.328125,59.0364587 238.572917,56.7604173 C250.869792,48.1406253 264.317708,48.9687507 272.822917,58.864584 C279.708333,66.8906253 278.901041,79.1458333 271.015625,86.1927093 C268.052083,88.8333333 264.265625,90.1510427 260.348959,89.8906253 C256.427083,89.6354173 252.843749,87.8281253 250.25,84.8177093 C246.093749,79.9791667 246.583333,72.5885413 251.338541,68.3437507 C253.088541,66.7812507 255.328125,66.005208 257.635416,66.1562507 C258.307292,66.2031253 258.963541,66.3333333 259.593749,66.5260427 C258.718749,67.375 258.166667,68.557292 258.166667,69.875 C258.166667,72.4427093 260.25,74.5260427 262.817708,74.5260427 C265.385416,74.5260427 267.468749,72.4427093 267.468749,69.875 C267.468749,68.7031253 267.031251,67.6406253 266.322917,66.8177093 L266.661459,66.5312507 C264.416667,63.9218747 261.307292,62.359376 257.901041,62.1354173 C254.489584,61.9114587 251.208333,63.0468747 248.645833,65.3385413 C242.265625,71.0364587 241.609375,80.9479173 247.182292,87.4375 C250.484375,91.2812507 255.0625,93.5833333 260.078125,93.9114587 C260.494792,93.9375 260.906251,93.9531253 261.322917,93.9531253 C265.885416,93.9531253 270.244792,92.2864587 273.713541,89.1927093 C283.218749,80.6979173 284.197917,65.9166667 275.890625,56.25 Z M141.010416,5.119792 C144.338541,8.994792 146.145833,13.9166667 146.145833,19.177084 C146.145833,24.4375 144.338541,29.359376 141.010416,33.239584 C137.6875,29.359376 135.880208,24.4375 135.880208,19.177084 C135.880208,13.9166667 137.6875,8.994792 141.010416,5.119792 Z M141.010416,38.1927093 C141.520833,38.1927093 142.026041,38.005208 142.416667,37.625 C147.354167,32.859376 150.1875,26.1354173 150.1875,19.177084 C150.1875,12.2187507 147.354167,5.494792 142.416667,0.729166667 C141.635416,-0.0260413333 140.390625,-0.0260413333 139.609375,0.729166667 C134.671875,5.494792 131.838541,12.2187507 131.838541,19.177084 C131.838541,26.1354173 134.671875,32.859376 139.609375,37.625 C140,38.005208 140.505208,38.1927093 141.010416,38.1927093" id="Shape" fill="#7F9593" fill-rule="nonzero" mask="url(#mask-2)"></path>
            </g>
            <line x1="0" y1="107.635417" x2="619.015795" y2="107.635417" id="Path" stroke="#D5B19B" stroke-width="3.00052805" stroke-linecap="round"></line>
            <g id="Group" transform="translate(33.833680, 130.694368)" fill="#7F9593" fill-rule="nonzero">
                <g id="Shape">
                    <path d="M0,38.010416 L8.79687467,38.010416 L8.79687467,37.3020827 C7.10937467,36.817708 6.625,35.567708 6.625,31.1145827 L6.625,22.9687493 L10.4791667,22.9687493 C20.5781253,22.9687493 25.8437507,17.9218747 25.8437507,10.697916 C25.8437507,5.43229067 22.2604173,0 11.0208333,0 L0,0 L0,0.708333333 C1.625,1.192708 2.17187467,2.442708 2.17187467,6.895832 L2.17187467,31.1145827 C2.17187467,35.567708 1.625,36.817708 0,37.3020827 L0,38.010416 Z M6.625,22.1562493 L6.625,0.921874667 C7.27604133,0.869790667 8.14583333,0.812498667 8.90624933,0.812498667 C17.6458333,0.812498667 21.067708,6.135416 21.067708,11.947916 C21.067708,18.3541653 17.317708,22.1562493 10.369792,22.1562493 L6.625,22.1562493 Z"></path>
                </g>
            </g>
            <g id="Group" transform="translate(62.882335, 130.694368)" fill="#7F9593" fill-rule="nonzero">
                <g id="Shape">
                    <path d="M27.6354173,38.390624 C28.7239587,38.390624 30.1354173,38.2812493 30.947916,38.010416 L30.947916,37.3593747 C30.677084,37.4114573 30.4062493,37.4114573 30.0781253,37.4114573 C28.2343747,37.4114573 27.1510413,35.6197907 24.5416667,29.1041653 C21.9375,22.4270827 20.9062493,19.1145827 14.2239587,18.2447907 C21.2864587,17.4322907 24.9739587,13.572916 24.9739587,8.46874933 C24.9739587,3.640624 21.7187507,0 10.697916,0 L0,0 L0,0.708333333 C1.682292,1.192708 2.17187467,2.442708 2.17187467,6.895832 L2.17187467,31.1145827 C2.17187467,35.567708 1.682292,36.817708 0,37.3020827 L0,38.010416 L8.79687467,38.010416 L8.79687467,37.3020827 C7.10937467,36.817708 6.625,35.567708 6.625,31.1145827 L6.625,18.4062493 L10.0989587,18.4062493 C16.6145827,18.4062493 17.0468747,22.2083333 20.197916,29.703124 C22.5885413,35.3489573 23.4583333,38.390624 27.6354173,38.390624 Z M6.625,17.5937493 L6.625,0.921874667 C7.48958267,0.869790667 8.35937467,0.812498667 9.177084,0.812498667 C17.2135413,0.812498667 20.3593747,4.885416 20.3593747,9.71874933 C20.3593747,14.3333333 17.427084,17.5937493 11.182292,17.5937493 L6.625,17.5937493 Z"></path>
                </g>
            </g>
            <g id="Group" transform="translate(95.188818, 130.694368)" fill="#7F9593" fill-rule="nonzero">
                <g transform="translate(-0.000000, 0.000000)" id="Path">
                    <path d="M0,38.010416 L8.79687467,38.010416 L8.79687467,37.3020827 C7.10937467,36.817708 6.625,35.567708 6.625,31.1145827 L6.625,6.895832 C6.625,2.442708 7.10937467,1.192708 8.79687467,0.708333333 L8.79687467,0 L0,0 L0,0.708333333 C1.625,1.192708 2.17187467,2.442708 2.17187467,6.895832 L2.17187467,31.1145827 C2.17187467,35.567708 1.625,36.817708 0,37.3020827 L0,38.010416 Z"></path>
                </g>
            </g>
            <g id="Group" transform="translate(108.000984, 130.314159)" fill="#7F9593" fill-rule="nonzero">
                <g id="Path">
                    <path d="M13.302084,38.932292 C19.7135413,38.932292 26.0104173,34.807292 26.0104173,28.0208333 C26.0104173,21.8854173 20.364584,19.494792 14.3333333,17.1041667 C9.71875067,15.2031253 4.125,13.1406253 4.125,8.03645867 C4.125,3.421876 7.875,0.869792 12.2708333,0.869792 C18.4635413,0.869792 22.2656253,4.23437467 24.2708333,8.95833333 L24.8177093,8.796876 L24.5989587,2.5 C22.4791667,1.35937467 18.9531253,0 14.0104173,0 C6.02604267,0 0.760417333,4.02083333 0.760417333,10.369792 C0.760417333,16.1302093 4.83333333,18.4062507 11.239584,20.9583333 C15.802084,22.807292 22.4791667,25.302084 22.4791667,30.7343747 C22.4791667,35.1302093 18.734376,37.9583333 14.3906253,37.9583333 C6.84375067,37.9583333 2.71354133,33.125 0.598958667,27.421876 L-8.8817842e-16,27.5312507 L0.270833333,35.0781253 C2.82291733,36.927084 7.60416667,38.932292 13.302084,38.932292 Z"></path>
                </g>
            </g>
            <g id="Group" transform="translate(137.646395, 130.314159)" fill="#7F9593" fill-rule="nonzero">
                <g id="Path">
                    <path d="M20.4739573,38.932292 C26.5520827,38.932292 31.7135413,37.4114587 34.265624,36 L35.130208,28.942708 L34.5364573,28.8906253 C32.4166667,34.75 27.8541653,37.8489587 21.9895827,37.8489587 C10.697916,37.8489587 4.505208,28.0729173 4.56249867,17.864584 C4.56249867,6.78645867 11.2395827,1.03125067 19.875,1.03125067 C26.3385413,1.03125067 31.4947907,4.34375067 33.6145827,9.28645867 L34.1562493,9.177084 L33.9374987,2.71354267 C31.822916,1.35937467 26.390624,0 21.7187493,0 C8.95833333,0 -5.92118946e-16,8.57812533 -5.92118946e-16,20.1458333 C-5.92118946e-16,31.9843747 7.98437467,38.932292 20.4739573,38.932292 Z"></path>
                </g>
            </g>
            <g id="Group" transform="translate(176.905100, 130.694368)" fill="#7F9593" fill-rule="nonzero">
                <g id="Path">
                    <path d="M0,38.010416 L8.79687467,38.010416 L8.79687467,37.3020827 C7.10937467,36.817708 6.625,35.567708 6.625,31.1145827 L6.625,6.895832 C6.625,2.442708 7.10937467,1.192708 8.79687467,0.708333333 L8.79687467,0 L0,0 L0,0.708333333 C1.625,1.192708 2.17187467,2.442708 2.17187467,6.895832 L2.17187467,31.1145827 C2.17187467,35.567708 1.625,36.817708 0,37.3020827 L0,38.010416 Z"></path>
                </g>
            </g>
            <g id="Group" transform="translate(190.316232, 130.694368)" fill="#7F9593" fill-rule="nonzero">
                <g transform="translate(0.000000, 0.000000)" id="Path">
                    <path d="M0,38.010416 L25.25,38.010416 L25.630208,31.875 L25.0312493,31.765624 C23.130208,35.8385413 20.7395827,37.140624 15.5260413,37.140624 L9.067708,37.140624 C7.48958267,37.140624 6.625,36.270832 6.625,34.697916 L6.625,6.895832 C6.625,2.442708 7.10937467,1.192708 8.79687467,0.708333333 L8.79687467,0 L0,0 L0,0.708333333 C1.625,1.192708 2.17187467,2.442708 2.17187467,6.895832 L2.17187467,31.1145827 C2.17187467,35.567708 1.625,36.817708 0,37.3020827 L0,38.010416 Z"></path>
                </g>
            </g>
            <g id="Group" transform="translate(218.876228, 130.694368)" fill="#7F9593" fill-rule="nonzero">
                <g transform="translate(0.000000, 0.000000)" id="Path">
                    <path d="M0,38.010416 L25.25,38.010416 L25.630208,31.875 L25.0312493,31.765624 C23.130208,35.8385413 20.7395827,37.140624 15.5260413,37.140624 L9.067708,37.140624 C7.48958267,37.140624 6.625,36.270832 6.625,34.697916 L6.625,6.895832 C6.625,2.442708 7.10937467,1.192708 8.79687467,0.708333333 L8.79687467,0 L0,0 L0,0.708333333 C1.625,1.192708 2.17187467,2.442708 2.17187467,6.895832 L2.17187467,31.1145827 C2.17187467,35.567708 1.625,36.817708 0,37.3020827 L0,38.010416 Z"></path>
                </g>
            </g>
            <g id="Group" transform="translate(243.743518, 130.262076)" fill="#7F9593" fill-rule="nonzero">
                <g id="Shape">
                    <path d="M8.8817842e-16,38.442708 L6.135416,38.442708 L6.135416,37.7343747 C4.28645867,37.3541667 4.072916,35.5625 5.48437467,32.0364573 L8.6875,24.1093747 L24,24.1093747 L27.3125,32.0885413 C29.0468747,36.1614573 29.4843747,37.25 27.8020827,37.7343747 L27.8020827,38.442708 L36.2187493,38.442708 L36.2187493,37.7343747 C35.0781253,37.25 33.7708333,36.1614573 32.0885413,32.0885413 L18.7343747,0 L14.6614587,1.84374933 L15.1510413,2.98437467 C15.5833333,3.85416667 15.635416,4.557292 15.255208,5.53645733 L4.5625,32.0364573 C2.875,36.1614573 1.52083333,37.25 8.8817842e-16,37.7343747 L8.8817842e-16,38.442708 Z M9.010416,23.2916667 L16.2343747,5.42708267 L23.6718747,23.2916667 L9.010416,23.2916667 Z"></path>
                </g>
            </g>
            <g id="Group" transform="translate(290.598491, 130.314159)" fill="#7F9593" fill-rule="nonzero">
                <g id="Shape">
                    <path d="M32.635416,38.7708333 C37.197916,38.7708333 42.953124,32.9583333 42.953124,26.8229173 C42.953124,23.4062507 40.942708,20.307292 37.9010413,18.8958333 L44.203124,18.8958333 L44.4739573,18.1354173 L24.8697907,18.1354173 L24.5989573,18.8958333 L36.4895827,18.8958333 C38.1770827,19.494792 39.4791653,24.5416667 39.4791653,27.802084 C39.4791653,32.0364587 38.9322907,36.3281253 36.380208,36.3281253 C33.072916,36.3281253 25.25,28.994792 18.895832,21.6093747 C15.0989573,17.1614587 10.5364573,11.4010413 10.5364573,6.89583333 C10.5364573,4.29166667 12.380208,1.03125067 16.890624,1.03125067 C19.9843747,1.03125067 23.567708,2.0625 26.1718747,8.14583333 L26.6614573,8.03645867 L26.067708,1.739584 C23.6770827,0.380209333 20.635416,0 18.515624,0 C10.0468747,0 6.895832,5.10416667 6.895832,9.125 C6.895832,11.7291667 7.98437467,14.2812507 9.66666667,17.052084 C3.09895733,19.3333333 0,23.567708 0,28.4010413 C0,34.046876 4.29166667,38.932292 10.645832,38.932292 C15.0416667,38.932292 18.895832,36.2187507 21.505208,31.2760413 C25.7395827,35.4583333 30.0833333,38.7708333 32.635416,38.7708333 Z M3.80208267,26.442708 C3.80208267,23.0781253 5.21354133,19.494792 10.0468747,17.5937507 C11.515624,19.875 13.4114573,22.2083333 15.5312493,24.7083333 C17.2135413,26.7135427 19.0624987,28.8333333 20.9635413,30.7343747 C18.953124,34.1562507 15.640624,36 12.817708,36 C7.11458267,36 3.80208267,31.1666667 3.80208267,26.442708 Z"></path>
                </g>
            </g>
            <g id="Group" transform="translate(347.884722, 130.694368)" fill="#7F9593" fill-rule="nonzero">
                <g id="Path">
                    <path d="M0,38.010416 L25.25,38.010416 L25.630208,31.875 L25.0312493,31.765624 C23.130208,35.8385413 20.7395827,37.140624 15.5260413,37.140624 L9.067708,37.140624 C7.48958267,37.140624 6.625,36.270832 6.625,34.697916 L6.625,6.895832 C6.625,2.442708 7.10937467,1.192708 8.79687467,0.708333333 L8.79687467,0 L0,0 L0,0.708333333 C1.625,1.192708 2.17187467,2.442708 2.17187467,6.895832 L2.17187467,31.1145827 C2.17187467,35.567708 1.625,36.817708 0,37.3020827 L0,38.010416 Z"></path>
                </g>
            </g>
            <g id="Group" transform="translate(376.496802, 130.262076)" fill="#7F9593" fill-rule="nonzero">
                <g transform="translate(0.000000, 0.000000)" id="Shape">
                    <path d="M19.3333333,38.9843747 C28.453124,38.9843747 38.5520827,33.010416 38.5520827,19.5989587 C38.5520827,6.29687467 28.510416,0 19.3333333,0 C7.817708,0 1.77635684e-15,8.25 1.77635684e-15,19.385416 C1.77635684e-15,32.8489587 10.0989573,38.9843747 19.3333333,38.9843747 Z M4.34374933,16.2343747 C4.020832,7.385416 8.85416533,1.24479067 17.1041653,1.24479067 C26.822916,1.24479067 33.9374987,11.8333333 34.317708,23.182292 C34.5885413,31.328124 30.3020827,37.630208 21.6145827,37.630208 C11.890624,37.630208 4.72395733,27.1458333 4.34374933,16.2343747 Z"></path>
                </g>
            </g>
            <g id="Group" transform="translate(419.664870, 130.694368)" fill="#7F9593" fill-rule="nonzero">
                <g id="Shape">
                    <path d="M27.6354173,38.390624 C28.7239587,38.390624 30.1354173,38.2812493 30.947916,38.010416 L30.947916,37.3593747 C30.677084,37.4114573 30.4062493,37.4114573 30.0781253,37.4114573 C28.2343747,37.4114573 27.1510413,35.6197907 24.5416667,29.1041653 C21.9375,22.4270827 20.9062493,19.1145827 14.2239587,18.2447907 C21.2864587,17.4322907 24.9739587,13.572916 24.9739587,8.46874933 C24.9739587,3.640624 21.7187507,0 10.697916,0 L0,0 L0,0.708333333 C1.682292,1.192708 2.17187467,2.442708 2.17187467,6.895832 L2.17187467,31.1145827 C2.17187467,35.567708 1.682292,36.817708 0,37.3020827 L0,38.010416 L8.79687467,38.010416 L8.79687467,37.3020827 C7.10937467,36.817708 6.625,35.567708 6.625,31.1145827 L6.625,18.4062493 L10.0989587,18.4062493 C16.6145827,18.4062493 17.0468747,22.2083333 20.197916,29.703124 C22.5885413,35.3489573 23.4583333,38.390624 27.6354173,38.390624 Z M6.625,17.5937493 L6.625,0.921874667 C7.48958267,0.869790667 8.35937467,0.812498667 9.177084,0.812498667 C17.2135413,0.812498667 20.3593747,4.885416 20.3593747,9.71874933 C20.3593747,14.3333333 17.427084,17.5937493 11.182292,17.5937493 L6.625,17.5937493 Z"></path>
                </g>
            </g>
            <g id="Group" transform="translate(451.971356, 130.694368)" fill="#7F9593" fill-rule="nonzero">
                <g id="Path">
                    <path d="M0,38.010416 L26.7708333,38.010416 L27.2031253,30.7864573 L26.6041667,30.6822907 C24.6510413,35.7291653 21.3385413,37.197916 16.125,37.197916 L9.067708,37.197916 C7.48958267,37.197916 6.625,36.328124 6.625,34.75 L6.625,18.0833333 L13.572916,18.0833333 C19.7656253,18.0833333 21.3385413,19.3333333 21.9895827,21.7760413 L22.6406253,21.7760413 L22.6406253,13.572916 L21.9895827,13.572916 C21.3385413,16.020832 19.7656253,17.265624 13.572916,17.265624 L6.625,17.265624 L6.625,0.812498667 L14.6041667,0.812498667 C20.1458333,0.812498667 23.3489587,2.442708 25.25,7.22395733 L25.8437507,7.05729067 L25.25,0 L0,0 L0,0.708333333 C1.625,1.192708 2.17187467,2.442708 2.17187467,6.895832 L2.17187467,31.1145827 C2.17187467,35.567708 1.625,36.817708 0,37.3020827 L0,38.010416 Z"></path>
                </g>
            </g>
            <g id="Group" transform="translate(482.430043, 130.694368)" fill="#7F9593" fill-rule="nonzero">
                <g id="Path">
                    <path d="M29.2656253,38.442708 L29.9739587,38.442708 L29.9739587,6.895832 C29.9739587,2.442708 30.4635413,1.192708 32.1458333,0.708333333 L32.1458333,0 L25.302084,0 L25.302084,0.708333333 C27.75,1.35937467 29.052084,2.880208 29.052084,9.067708 L29.052084,30.7343747 L5.32291733,0 L-8.8817842e-16,0 L-8.8817842e-16,0.708333333 C2.17187467,1.192708 2.82291733,2.442708 2.82291733,6.895832 L2.82291733,31.1145827 C2.82291733,35.567708 2.28125067,36.817708 0.651042667,37.3020827 L0.651042667,38.010416 L7.4375,38.010416 L7.4375,37.3020827 C4.994792,36.6510413 3.69270933,35.130208 3.69270933,28.942708 L3.69270933,5.16145733 L29.2656253,38.442708 Z"></path>
                </g>
            </g>
            <g id="Group" transform="translate(516.963094, 130.694368)" fill="#7F9593" fill-rule="nonzero">
                <g id="Path">
                    <path d="M8.8817842e-16,38.010416 L25.4114573,38.010416 L26.3906253,29.8645827 L25.8489587,29.8645827 C23.6718747,35.3489573 21.5,37.140624 14.7708333,37.140624 L4.99479067,37.140624 L26.0625,0.708333333 L26.0625,0 L1.84374933,0 L0.979166667,7.60416533 L1.572916,7.60416533 C3.53124933,2.60937467 6.02604133,0.869790667 11.510416,0.869790667 L20.9062493,0.869790667 L8.8817842e-16,37.3020827 L8.8817842e-16,38.010416 Z"></path>
                </g>
            </g>
            <g id="Group" transform="translate(546.390928, 130.262076)" fill="#7F9593" fill-rule="nonzero">
                <g transform="translate(0.000000, 0.000000)" id="Shape">
                    <path d="M19.3333333,38.9843747 C28.453124,38.9843747 38.5520827,33.010416 38.5520827,19.5989587 C38.5520827,6.29687467 28.510416,0 19.3333333,0 C7.817708,0 1.77635684e-15,8.25 1.77635684e-15,19.385416 C1.77635684e-15,32.8489587 10.0989573,38.9843747 19.3333333,38.9843747 Z M4.34374933,16.2343747 C4.020832,7.385416 8.85416533,1.24479067 17.1041653,1.24479067 C26.822916,1.24479067 33.9374987,11.8333333 34.317708,23.182292 C34.5885413,31.328124 30.3020827,37.630208 21.6145827,37.630208 C11.890624,37.630208 4.72395733,27.1458333 4.34374933,16.2343747 Z"></path>
                </g>
            </g>
        </g>
    </g>
</svg>